<?xml version="1.0" encoding="UTF-8" standalone="no"?>
<!-- Created with Inkscape (http://www.inkscape.org/) -->

<svg
   xmlns:dc="http://purl.org/dc/elements/1.1/"
   xmlns:cc="http://creativecommons.org/ns#"
   xmlns:rdf="http://www.w3.org/1999/02/22-rdf-syntax-ns#"
   xmlns:svg="http://www.w3.org/2000/svg"
   xmlns="http://www.w3.org/2000/svg"
   xmlns:sodipodi="http://sodipodi.sourceforge.net/DTD/sodipodi-0.dtd"
   xmlns:inkscape="http://www.inkscape.org/namespaces/inkscape"
   width="254mm"
   height="254.00003mm"
   viewBox="0 0 900 900.0001"
   id="svg4192"
   version="1.1"
   inkscape:version="0.91 r13725"
   sodipodi:docname="SportsBallPatternMulticoloured.svg">
  <sodipodi:namedview
     id="base"
     pagecolor="#ffffff"
     bordercolor="#666666"
     borderopacity="1.0"
     inkscape:pageopacity="0.0"
     inkscape:pageshadow="2"
     inkscape:zoom="0.74444436"
     inkscape:cx="450"
     inkscape:cy="450.00005"
     inkscape:document-units="px"
     inkscape:current-layer="layer1"
     showgrid="false"
     inkscape:window-width="1600"
     inkscape:window-height="837"
     inkscape:window-x="-8"
     inkscape:window-y="-8"
     inkscape:window-maximized="1"
     fit-margin-top="0"
     fit-margin-left="0"
     fit-margin-right="0"
     fit-margin-bottom="0" />
  <defs
     id="defs4194" />
  <metadata
     id="metadata4197">
    <rdf:RDF>
      <cc:Work
         rdf:about="">
        <dc:format>image/svg+xml</dc:format>
        <dc:type
           rdf:resource="http://purl.org/dc/dcmitype/StillImage" />
        <dc:title></dc:title>
      </cc:Work>
    </rdf:RDF>
  </metadata>
  <g
     transform="translate(0,-152.36223)"
     id="layer1"
     inkscape:groupmode="layer"
     inkscape:label="Layer 1">
    <g
       id="g4791">
      <path
         inkscape:connector-curvature="0"
         id="path4205"
         d="m 0,152.3623 900,0 0,900 -900,0 z"
         style="opacity:1;fill:#9996ff;fill-opacity:1;stroke:none;stroke-width:4.5360198;stroke-miterlimit:4;stroke-dasharray:none;stroke-opacity:1" />
      <path
         inkscape:connector-curvature="0"
         id="path4617"
         d="m 750,152.3623 150,0 0,150 -150,0 z"
         style="opacity:1;fill:#ff1dc1;fill-opacity:1;stroke:none;stroke-width:0.75600332;stroke-miterlimit:4;stroke-dasharray:none;stroke-opacity:1" />
      <path
         style="opacity:1;fill:#ffbeeb;fill-opacity:1;stroke:none;stroke-width:0.75600332;stroke-miterlimit:4;stroke-dasharray:none;stroke-opacity:1"
         d="m 750,452.3623 150,0 0,150 -150,0 z"
         id="path4605"
         inkscape:connector-curvature="0" />
      <path
         style="opacity:1;fill:#004d96;fill-opacity:1;stroke:none;stroke-width:0.75600332;stroke-miterlimit:4;stroke-dasharray:none;stroke-opacity:1"
         d="m 600,302.3623 150,0 0,150 -150,0 z"
         id="path4619"
         inkscape:connector-curvature="0" />
      <path
         inkscape:connector-curvature="0"
         id="path4599"
         d="m 750,752.3623 150,0 0,150 -150,0 z"
         style="opacity:1;fill:#fef362;fill-opacity:1;stroke:none;stroke-width:0.75600332;stroke-miterlimit:4;stroke-dasharray:none;stroke-opacity:1" />
      <path
         inkscape:connector-curvature="0"
         id="path4607"
         d="m 600,602.3623 150,0 0,150 -150,0 z"
         style="opacity:1;fill:#b21fff;fill-opacity:1;stroke:none;stroke-width:0.75600332;stroke-miterlimit:4;stroke-dasharray:none;stroke-opacity:1" />
      <path
         style="opacity:1;fill:#c42dfe;fill-opacity:1;stroke:none;stroke-width:0.75600332;stroke-miterlimit:4;stroke-dasharray:none;stroke-opacity:1"
         d="m 600,902.3623 150,0 0,150 -150,0 z"
         id="path4597"
         inkscape:connector-curvature="0" />
      <path
         style="opacity:1;fill:#d8f000;fill-opacity:1;stroke:none;stroke-width:0.75600332;stroke-miterlimit:4;stroke-dasharray:none;stroke-opacity:1"
         d="m 450,752.3623 150,0 0,150 -150,0 z"
         id="path4601"
         inkscape:connector-curvature="0" />
      <path
         inkscape:connector-curvature="0"
         id="path4609"
         d="m 450,452.3623 150,0 0,150 -150,0 z"
         style="opacity:1;fill:#b8f7fe;fill-opacity:1;stroke:none;stroke-width:0.75600332;stroke-miterlimit:4;stroke-dasharray:none;stroke-opacity:1" />
      <path
         style="opacity:1;fill:#7dffa7;fill-opacity:1;stroke:none;stroke-width:0.75600332;stroke-miterlimit:4;stroke-dasharray:none;stroke-opacity:1"
         d="m 450,152.3623 150,0 0,150 -150,0 z"
         id="path4621"
         inkscape:connector-curvature="0" />
      <path
         inkscape:connector-curvature="0"
         id="path4595"
         d="m 300,902.3623 150,0 0,150 -150,0 z"
         style="opacity:1;fill:#030022;fill-opacity:1;stroke:none;stroke-width:0.75600332;stroke-miterlimit:4;stroke-dasharray:none;stroke-opacity:1" />
      <path
         inkscape:connector-curvature="0"
         id="path4603"
         d="m 150,752.3623 150,0 0,150 -150,0 z"
         style="opacity:1;fill:#93003e;fill-opacity:1;stroke:none;stroke-width:0.75600332;stroke-miterlimit:4;stroke-dasharray:none;stroke-opacity:1" />
      <path
         style="opacity:1;fill:#c8ffef;fill-opacity:1;stroke:none;stroke-width:0.75600332;stroke-miterlimit:4;stroke-dasharray:none;stroke-opacity:1"
         d="m 300,602.3623 150,0 0,150 -150,0 z"
         id="path4611"
         inkscape:connector-curvature="0" />
      <path
         style="opacity:1;fill:#304dff;fill-opacity:1;stroke:none;stroke-width:0.75600332;stroke-miterlimit:4;stroke-dasharray:none;stroke-opacity:1"
         d="m 0,902.3623 150,0 0,150 -150,0 z"
         id="rect4200"
         inkscape:connector-curvature="0" />
      <path
         inkscape:connector-curvature="0"
         style="fill:#1f1b00;fill-opacity:1"
         d="m 107.55492,1009.3129 c 1.44772,-1.4437 2.84525,-2.9316 4.18938,-4.4609 l -0.002,0 c 11.53016,-13.11752 19.46382,-28.95595 22.20578,-46.25775 1.28032,-8.08498 5.83286,-36.44177 -4.93332,-39.43105 -32.516821,-9.02912 -70.46307,7.82372 -91.525393,32.17488 -11.620194,13.43467 -19.601058,30.06662 -22.099956,47.7009 -1.198994,8.46412 -4.565803,34.72882 7.0215,37.20242 30.527487,6.5173 63.429605,-5.2718 85.143429,-26.9308 z M 93.282765,968.99845 c -0.557358,0.39454 -0.999603,0.87759 -1.552081,1.25654 -1.818518,0.47474 -2.54942,-2.03779 -3.766377,-2.84649 -1.874067,1.80696 -3.738796,3.72962 -5.609423,5.58071 -1.184234,1.67415 -3.131916,2.65217 -4.266529,4.33206 0.081,1.30966 1.900038,1.7528 2.417943,2.94347 0.828646,1.37731 -0.862464,2.21619 -1.722935,2.93746 -1.818529,0.47475 -2.54943,-2.03779 -3.766387,-2.84649 -1.874067,1.80697 -3.738789,3.72961 -5.609429,5.58073 -1.184233,1.67413 -3.13191,2.65214 -4.266524,4.33204 0.08089,1.3097 1.90007,1.7528 2.417938,2.9435 0.828163,1.3776 -0.862637,2.2164 -1.723361,2.9379 -1.818518,0.4747 -2.549434,-2.0378 -3.766387,-2.8466 -3.218808,3.0984 -6.318785,6.4171 -9.592381,9.49642 -1.262502,1.3426 1.126311,1.7722 1.759393,2.6368 1.412873,1.5721 -0.616306,3.3279 -1.855881,4.1686 -2.949193,-3.0932 -6.175183,-5.9587 -9.024202,-9.1067 -0.825447,-1.37232 0.854076,-2.23382 1.741469,-2.92082 1.874707,-0.4312 2.608827,2.1038 3.888759,2.97342 1.878739,-1.78122 3.742623,-3.72932 5.615806,-5.57422 1.177449,-1.6673 3.106853,-2.6468 4.250822,-4.3072 -0.102193,-1.3908 -1.97641,-1.87682 -2.549577,-3.11851 -0.825023,-1.37245 0.854218,-2.23405 1.741819,-2.92124 1.874748,-0.43111 2.608913,2.1038 3.888791,2.97346 1.878752,-1.78122 3.74274,-3.72935 5.61587,-5.57432 1.177411,-1.66726 3.106853,-2.64674 4.25079,-4.30715 -0.102254,-1.39071 -1.976606,-1.87661 -2.549551,-3.11848 -0.825483,-1.37222 0.854051,-2.23378 1.741407,-2.92083 1.874739,-0.43087 2.608887,2.10375 3.888764,2.97348 1.878719,-1.78122 3.742707,-3.72934 5.615843,-5.5743 1.177417,-1.66726 3.106848,-2.64675 4.250784,-4.30715 -0.102243,-1.39072 -1.976606,-1.87661 -2.549549,-3.11847 -0.825472,-1.37224 0.854058,-2.23379 1.741415,-2.92084 1.874722,-0.43111 2.608835,2.10385 3.888752,2.97347 3.142302,-3.01478 6.219075,-6.2774 9.398416,-9.28662 1.568695,-1.45389 -0.901413,-2.09918 -1.706324,-2.99011 -1.412818,-1.57209 0.616322,-3.32787 1.855944,-4.1686 l 6.389818,6.38983 c 0.78837,1.23775 2.73077,1.9412 3.03213,3.4191 -0.47961,0.89086 -1.37076,1.56632 -2.121,2.23555 -1.81852,0.47476 -2.54941,-2.03779 -3.76636,-2.84649 -2.698692,2.53032 -5.221556,5.3378 -7.894819,7.91605 -0.754813,0.65821 -2.952411,1.96825 -1.452794,2.98687 0.91058,0.82198 2.925474,2.25372 1.718782,3.63431 z"
         id="path5" />
      <path
         inkscape:connector-curvature="0"
         d="m 225,917.36238 a 60,60 0 0 0 -60,60 60,60 0 0 0 60,59.99992 60,60 0 0 0 60,-59.99992 60,60 0 0 0 -60,-60 z m -1.91245,4.04357 0,4.71529 -17.84391,9.17808 -17.20724,0 a 56.082364,56.082364 0 0 1 35.05115,-13.89337 z m 3.8249,0 a 56.082364,56.082364 0 0 1 35.05114,13.89337 l -17.20723,0 -17.84391,-9.17808 0,-4.71529 z m -42.82659,17.71706 20.13812,0 5.35318,14.02022 -13.38354,23.07023 -14.65689,2.29421 -10.19773,-17.58899 a 56.082364,56.082364 0 0 1 12.74686,-21.79567 z m 61.69015,0 20.13813,0 a 56.082364,56.082364 0 0 1 12.6188,21.92252 l -10.06967,17.46214 -14.65689,-2.29421 -13.38354,-23.07023 5.35317,-14.02022 z m -31.86533,16.56935 22.17864,0 12.87371,22.43234 -11.34423,19.62954 -25.2376,0 -11.34423,-19.62954 12.87371,-22.43234 z m -43.84625,10.57949 9.30493,16.18758 0.8928,18.48057 -4.71649,2.8052 a 56.082364,56.082364 0 0 1 -6.62774,-26.38524 56.082364,56.082364 0 0 1 1.1465,-11.08811 z m 109.87114,0.12685 a 56.082364,56.082364 0 0 1 1.1465,10.96126 56.082364,56.082364 0 0 1 -6.62774,26.38524 l -4.71649,-2.8052 0.8928,-18.48057 9.30493,-16.06073 z m -67.55437,36.4537 25.2376,0 9.81354,12.109 -9.81354,16.9523 a 56.082364,56.082364 0 0 1 -12.6188,1.5295 56.082364,56.082364 0 0 1 -12.6188,-1.5295 l -9.81355,-16.9523 9.81355,-12.109 z m -30.46271,1.6576 16.18758,10.3234 8.92196,15.6777 a 56.082364,56.082364 0 0 1 -29.57112,-23.452 l 4.46158,-2.5491 z m 86.16302,0 4.46158,2.5491 a 56.082364,56.082364 0 0 1 -29.57112,23.3252 l 8.92196,-15.5509 16.18758,-10.3234 z"
         id="circle4"
         style="fill:#2bff4f;fill-opacity:1" />
      <path
         style="fill:#009a0f;fill-opacity:1;fill-rule:evenodd;stroke:none;stroke-width:2.96992159"
         d="m 375,917.36237 a 59.999966,59.999966 0 0 0 -9.36956,0.77241 c -16.45666,11.68271 -14.55357,21.31351 -13.43481,28.87469 0.60265,10.95633 6.4887,16.55205 7.9969,30.44565 2.31138,16.10472 -4.92571,35.53198 -9.54952,38.44708 -5.20755,3.5969 -9.92743,5.968 -15.58296,6.1517 A 59.999966,59.999966 0 0 0 375,1037.3623 a 59.999966,59.999966 0 0 0 31.79442,-9.2022 c -0.5254,-2.0658 -0.6501,-4.2264 -0.44237,-6.1703 1.40595,-8.6513 5.29469,-15.2127 10.31285,-23.10198 3.1775,-5.33722 4.9992,-10.67458 7.49948,-16.01194 2.88572,-7.52964 2.91999,-19.5102 0.68584,-38.85355 A 59.999966,59.999966 0 0 0 375,917.36237 Z m -18.33344,2.9453 A 59.999966,59.999966 0 0 0 315,977.36236 a 59.999966,59.999966 0 0 0 16.12304,40.85114 c 5.67348,-0.06 10.03253,-1.629 15.28035,-5.2548 4.6238,-2.915 10.63873,-20.10278 8.32629,-35.68286 -1.50819,-13.36908 -4.24376,-10.82652 -7.47124,-30.97033 -1.34835,-7.41844 -0.0798,-17.55767 9.40812,-25.99784 z m 72.71599,31.86574 c 1.04401,12.63143 1.00083,23.77667 -2.71917,34.63931 -5.74562,13.65078 -18.04093,29.76808 -16.56086,34.12168 -0.1056,1.5903 -0.21079,3.2351 0.2721,4.8106 A 59.999966,59.999966 0 0 0 435,977.36236 59.999966,59.999966 0 0 0 429.38255,952.17341 Z"
         id="path1350"
         inkscape:connector-curvature="0" />
      <path
         id="path5215"
         d="m 557.55492,1009.3129 c 1.44772,-1.4437 2.84525,-2.9316 4.18938,-4.4609 l -0.002,0 c 11.53016,-13.11752 19.46382,-28.95595 22.20578,-46.25775 1.28032,-8.08498 5.83286,-36.44177 -4.93332,-39.43105 -32.51682,-9.02912 -70.46307,7.82372 -91.52539,32.17488 -11.6202,13.43467 -19.60106,30.06662 -22.09996,47.7009 -1.19899,8.46412 -4.5658,34.72882 7.0215,37.20242 30.52749,6.5173 63.42961,-5.2718 85.14343,-26.9308 z m -14.27215,-40.31445 c -0.55736,0.39454 -0.99961,0.87759 -1.55209,1.25654 -1.81851,0.47474 -2.54942,-2.03779 -3.76637,-2.84649 -1.87407,1.80696 -3.7388,3.72962 -5.60943,5.58071 -1.18423,1.67415 -3.13191,2.65217 -4.26653,4.33206 0.081,1.30966 1.90004,1.7528 2.41795,2.94347 0.82864,1.37731 -0.86247,2.21619 -1.72294,2.93746 -1.81853,0.47475 -2.54943,-2.03779 -3.76638,-2.84649 -1.87407,1.80697 -3.73879,3.72961 -5.60943,5.58073 -1.18424,1.67413 -3.13191,2.65214 -4.26653,4.33204 0.0809,1.3097 1.90007,1.7528 2.41794,2.9435 0.82816,1.3776 -0.86264,2.2164 -1.72336,2.9379 -1.81852,0.4747 -2.54943,-2.0378 -3.76639,-2.8466 -3.21881,3.0984 -6.31878,6.4171 -9.59238,9.49642 -1.2625,1.3426 1.12631,1.7722 1.75939,2.6368 1.41288,1.5721 -0.6163,3.3279 -1.85588,4.1686 -2.94919,-3.0932 -6.17518,-5.9587 -9.0242,-9.1067 -0.82545,-1.37232 0.85408,-2.23382 1.74147,-2.92082 1.87471,-0.4312 2.60883,2.1038 3.88876,2.97342 1.87874,-1.78122 3.74262,-3.72932 5.61581,-5.57422 1.17744,-1.6673 3.10685,-2.6468 4.25082,-4.3072 -0.10219,-1.3908 -1.97641,-1.87682 -2.54958,-3.11851 -0.82502,-1.37245 0.85422,-2.23405 1.74182,-2.92124 1.87475,-0.43111 2.60891,2.1038 3.88879,2.97346 1.87875,-1.78122 3.74274,-3.72935 5.61587,-5.57432 1.17741,-1.66726 3.10685,-2.64674 4.25079,-4.30715 -0.10225,-1.39071 -1.97661,-1.87661 -2.54955,-3.11848 -0.82548,-1.37222 0.85405,-2.23378 1.74141,-2.92083 1.87474,-0.43087 2.60888,2.10375 3.88876,2.97348 1.87872,-1.78122 3.74271,-3.72934 5.61584,-5.5743 1.17742,-1.66726 3.10685,-2.64675 4.25079,-4.30715 -0.10225,-1.39072 -1.97661,-1.87661 -2.54955,-3.11847 -0.82547,-1.37224 0.85406,-2.23379 1.74141,-2.92084 1.87473,-0.43111 2.60884,2.10385 3.88876,2.97347 3.1423,-3.01478 6.21907,-6.2774 9.39841,-9.28662 1.5687,-1.45389 -0.90141,-2.09918 -1.70632,-2.99011 -1.41282,-1.57209 0.61632,-3.32787 1.85594,-4.1686 l 6.38982,6.38983 c 0.78837,1.23775 2.73077,1.9412 3.03213,3.4191 -0.47961,0.89086 -1.37076,1.56632 -2.121,2.23555 -1.81852,0.47476 -2.54941,-2.03779 -3.76636,-2.84649 -2.69869,2.53032 -5.22156,5.3378 -7.89482,7.91605 -0.75481,0.65821 -2.95241,1.96825 -1.45279,2.98687 0.91058,0.82198 2.92547,2.25372 1.71878,3.63431 z"
         style="fill:#c39cff;fill-opacity:1"
         inkscape:connector-curvature="0" />
      <path
         style="fill:#ff8e8e;fill-opacity:1"
         id="path5217"
         d="m 675,917.36238 a 60,60 0 0 0 -60,60 60,60 0 0 0 60,59.99992 60,60 0 0 0 60,-59.99992 60,60 0 0 0 -60,-60 z m -1.91245,4.04357 0,4.71529 -17.84391,9.17808 -17.20724,0 a 56.082364,56.082364 0 0 1 35.05115,-13.89337 z m 3.8249,0 a 56.082364,56.082364 0 0 1 35.05114,13.89337 l -17.20723,0 -17.84391,-9.17808 0,-4.71529 z m -42.82659,17.71706 20.13812,0 5.35318,14.02022 -13.38354,23.07023 -14.65689,2.29421 -10.19773,-17.58899 a 56.082364,56.082364 0 0 1 12.74686,-21.79567 z m 61.69015,0 20.13813,0 a 56.082364,56.082364 0 0 1 12.6188,21.92252 l -10.06967,17.46214 -14.65689,-2.29421 -13.38354,-23.07023 5.35317,-14.02022 z m -31.86533,16.56935 22.17864,0 12.87371,22.43234 -11.34423,19.62954 -25.2376,0 -11.34423,-19.62954 12.87371,-22.43234 z m -43.84625,10.57949 9.30493,16.18758 0.8928,18.48057 -4.71649,2.8052 a 56.082364,56.082364 0 0 1 -6.62774,-26.38524 56.082364,56.082364 0 0 1 1.1465,-11.08811 z m 109.87114,0.12685 a 56.082364,56.082364 0 0 1 1.1465,10.96126 56.082364,56.082364 0 0 1 -6.62774,26.38524 l -4.71649,-2.8052 0.8928,-18.48057 9.30493,-16.06073 z m -67.55437,36.4537 25.2376,0 9.81354,12.109 -9.81354,16.9523 a 56.082364,56.082364 0 0 1 -12.6188,1.5295 56.082364,56.082364 0 0 1 -12.6188,-1.5295 l -9.81355,-16.9523 9.81355,-12.109 z m -30.46271,1.6576 16.18758,10.3234 8.92196,15.6777 a 56.082364,56.082364 0 0 1 -29.57112,-23.452 l 4.46158,-2.5491 z m 86.16302,0 4.46158,2.5491 a 56.082364,56.082364 0 0 1 -29.57112,23.3252 l 8.92196,-15.5509 16.18758,-10.3234 z"
         inkscape:connector-curvature="0" />
      <path
         inkscape:connector-curvature="0"
         id="path5219"
         d="m 825,917.36237 a 59.999966,59.999966 0 0 0 -9.36956,0.77241 c -16.45666,11.68271 -14.55357,21.31351 -13.43481,28.87469 0.60265,10.95633 6.4887,16.55205 7.9969,30.44565 2.31138,16.10472 -4.92571,35.53198 -9.54952,38.44708 -5.20755,3.5969 -9.92743,5.968 -15.58296,6.1517 A 59.999966,59.999966 0 0 0 825,1037.3623 a 59.999966,59.999966 0 0 0 31.79442,-9.2022 c -0.5254,-2.0658 -0.6501,-4.2264 -0.44237,-6.1703 1.40595,-8.6513 5.29469,-15.2127 10.31285,-23.10198 3.1775,-5.33722 4.9992,-10.67458 7.49948,-16.01194 2.88572,-7.52964 2.91999,-19.5102 0.68584,-38.85355 A 59.999966,59.999966 0 0 0 825,917.36237 Z m -18.33344,2.9453 A 59.999966,59.999966 0 0 0 765,977.36236 a 59.999966,59.999966 0 0 0 16.12304,40.85114 c 5.67348,-0.06 10.03253,-1.629 15.28035,-5.2548 4.6238,-2.915 10.63873,-20.10278 8.32629,-35.68286 -1.50819,-13.36908 -4.24376,-10.82652 -7.47124,-30.97033 -1.34835,-7.41844 -0.0798,-17.55767 9.40812,-25.99784 z m 72.71599,31.86574 c 1.04401,12.63143 1.00083,23.77667 -2.71917,34.63931 -5.74562,13.65078 -18.04093,29.76808 -16.56086,34.12168 -0.1056,1.5903 -0.21079,3.2351 0.2721,4.8106 A 59.999966,59.999966 0 0 0 885,977.36236 59.999966,59.999966 0 0 0 879.38255,952.17341 Z"
         style="fill:#e5faff;fill-opacity:1;fill-rule:evenodd;stroke:none;stroke-width:2.96992159" />
      <path
         id="path5221"
         d="m 257.55492,859.3129 c 1.44772,-1.4437 2.84525,-2.9316 4.18938,-4.4609 l -0.002,0 c 11.53016,-13.11752 19.46382,-28.95595 22.20578,-46.25775 1.28032,-8.08498 5.83286,-36.44177 -4.93332,-39.43105 -32.51682,-9.02912 -70.46307,7.82372 -91.52539,32.17488 -11.6202,13.43467 -19.60106,30.06662 -22.09996,47.7009 -1.19899,8.46412 -4.5658,34.72882 7.0215,37.20242 30.52749,6.5173 63.42961,-5.2718 85.14343,-26.9308 z m -14.27216,-40.31445 c -0.55735,0.39454 -0.9996,0.87759 -1.55208,1.25654 -1.81851,0.47474 -2.54942,-2.03779 -3.76637,-2.84649 -1.87407,1.80696 -3.7388,3.72962 -5.60943,5.58071 -1.18423,1.67415 -3.13191,2.65217 -4.26653,4.33206 0.081,1.30966 1.90004,1.7528 2.41795,2.94347 0.82864,1.37731 -0.86247,2.21619 -1.72294,2.93746 -1.81853,0.47475 -2.54943,-2.03779 -3.76638,-2.84649 -1.87407,1.80697 -3.73879,3.72961 -5.60943,5.58073 -1.18424,1.67413 -3.13191,2.65214 -4.26653,4.33204 0.0809,1.3097 1.90007,1.7528 2.41794,2.9435 0.82816,1.3776 -0.86264,2.2164 -1.72336,2.9379 -1.81852,0.4747 -2.54943,-2.0378 -3.76639,-2.8466 -3.21881,3.0984 -6.31878,6.4171 -9.59238,9.49642 -1.2625,1.3426 1.12631,1.7722 1.75939,2.6368 1.41288,1.5721 -0.6163,3.3279 -1.85588,4.1686 -2.94919,-3.0932 -6.17518,-5.9587 -9.0242,-9.1067 -0.82545,-1.37232 0.85408,-2.23382 1.74147,-2.92082 1.87471,-0.4312 2.60883,2.1038 3.88876,2.97342 1.87874,-1.78122 3.74262,-3.72932 5.61581,-5.57422 1.17744,-1.6673 3.10685,-2.6468 4.25082,-4.3072 -0.1022,-1.3908 -1.97641,-1.87682 -2.54958,-3.11851 -0.82502,-1.37245 0.85422,-2.23405 1.74182,-2.92124 1.87475,-0.43111 2.60891,2.1038 3.88879,2.97346 1.87875,-1.78122 3.74274,-3.72935 5.61587,-5.57432 1.17741,-1.66726 3.10685,-2.64674 4.25079,-4.30715 -0.10225,-1.39071 -1.97661,-1.87661 -2.54955,-3.11848 -0.82548,-1.37222 0.85405,-2.23378 1.74141,-2.92083 1.87474,-0.43087 2.60888,2.10375 3.88876,2.97348 1.87872,-1.78122 3.74271,-3.72934 5.61584,-5.5743 1.17742,-1.66726 3.10685,-2.64675 4.25079,-4.30715 -0.10225,-1.39072 -1.97661,-1.87661 -2.54955,-3.11847 -0.82547,-1.37224 0.85406,-2.23379 1.74141,-2.92084 1.87473,-0.43111 2.60884,2.10385 3.88876,2.97347 3.1423,-3.01478 6.21907,-6.2774 9.39841,-9.28662 1.5687,-1.45389 -0.90141,-2.09918 -1.70632,-2.99011 -1.41282,-1.57209 0.61632,-3.32787 1.85594,-4.1686 l 6.38982,6.38983 c 0.78837,1.23775 2.73077,1.9412 3.03213,3.4191 -0.47961,0.89086 -1.37076,1.56632 -2.121,2.23555 -1.81852,0.47476 -2.54941,-2.03779 -3.76636,-2.84649 -2.69869,2.53032 -5.22156,5.3378 -7.89482,7.91605 -0.75481,0.65821 -2.95241,1.96825 -1.45279,2.98687 0.91058,0.82198 2.92547,2.25372 1.71878,3.63431 z"
         style="fill:#eefff7;fill-opacity:1"
         inkscape:connector-curvature="0" />
      <path
         style="fill:#004b93;fill-opacity:1"
         id="path5223"
         d="m 375,767.36238 a 60,60 0 0 0 -60,60 60,60 0 0 0 60,59.99992 60,60 0 0 0 60,-59.99992 60,60 0 0 0 -60,-60 z m -1.91245,4.04357 0,4.71529 -17.84391,9.17808 -17.20724,0 a 56.082364,56.082364 0 0 1 35.05115,-13.89337 z m 3.8249,0 a 56.082364,56.082364 0 0 1 35.05114,13.89337 l -17.20723,0 -17.84391,-9.17808 0,-4.71529 z m -42.82659,17.71706 20.13812,0 5.35318,14.02022 -13.38354,23.07023 -14.65689,2.29421 -10.19773,-17.58899 a 56.082364,56.082364 0 0 1 12.74686,-21.79567 z m 61.69015,0 20.13813,0 a 56.082364,56.082364 0 0 1 12.6188,21.92252 l -10.06967,17.46214 -14.65689,-2.29421 -13.38354,-23.07023 5.35317,-14.02022 z m -31.86533,16.56935 22.17864,0 12.87371,22.43234 -11.34423,19.62954 -25.2376,0 -11.34423,-19.62954 12.87371,-22.43234 z m -43.84625,10.57949 9.30493,16.18758 0.8928,18.48057 -4.71649,2.8052 a 56.082364,56.082364 0 0 1 -6.62774,-26.38524 56.082364,56.082364 0 0 1 1.1465,-11.08811 z m 109.87114,0.12685 a 56.082364,56.082364 0 0 1 1.1465,10.96126 56.082364,56.082364 0 0 1 -6.62774,26.38524 l -4.71649,-2.8052 0.8928,-18.48057 9.30493,-16.06073 z m -67.55437,36.4537 25.2376,0 9.81354,12.109 -9.81354,16.9523 A 56.082364,56.082364 0 0 1 375,883.4432 56.082364,56.082364 0 0 1 362.3812,881.9137 l -9.81355,-16.9523 9.81355,-12.109 z m -30.46271,1.6576 16.18758,10.3234 8.92196,15.6777 a 56.082364,56.082364 0 0 1 -29.57112,-23.452 l 4.46158,-2.5491 z m 86.16302,0 4.46158,2.5491 a 56.082364,56.082364 0 0 1 -29.57112,23.3252 l 8.92196,-15.5509 16.18758,-10.3234 z"
         inkscape:connector-curvature="0" />
      <path
         inkscape:connector-curvature="0"
         id="path5225"
         d="m 525,767.36237 a 59.999966,59.999966 0 0 0 -9.36956,0.77241 c -16.45666,11.68271 -14.55357,21.31351 -13.43481,28.87469 0.60265,10.95633 6.4887,16.55205 7.9969,30.44565 2.31138,16.10472 -4.92571,35.53198 -9.54952,38.44708 -5.20755,3.5969 -9.92743,5.968 -15.58296,6.1517 A 59.999966,59.999966 0 0 0 525,887.3623 a 59.999966,59.999966 0 0 0 31.79442,-9.2022 c -0.5254,-2.0658 -0.6501,-4.2264 -0.44237,-6.1703 1.40595,-8.6513 5.29469,-15.2127 10.31285,-23.10198 3.1775,-5.33722 4.9992,-10.67458 7.49948,-16.01194 2.88572,-7.52964 2.91999,-19.5102 0.68584,-38.85355 A 59.999966,59.999966 0 0 0 525,767.36237 Z m -18.33344,2.9453 A 59.999966,59.999966 0 0 0 465,827.36236 59.999966,59.999966 0 0 0 481.12304,868.2135 c 5.67348,-0.06 10.03253,-1.629 15.28035,-5.2548 4.6238,-2.915 10.63873,-20.10278 8.32629,-35.68286 -1.50819,-13.36908 -4.24376,-10.82652 -7.47124,-30.97033 -1.34835,-7.41844 -0.0798,-17.55767 9.40812,-25.99784 z m 72.71599,31.86574 c 1.04401,12.63143 1.00083,23.77667 -2.71917,34.63931 -5.74562,13.65078 -18.04093,29.76808 -16.56086,34.12168 -0.1056,1.5903 -0.21079,3.2351 0.2721,4.8106 A 59.999966,59.999966 0 0 0 585,827.36236 59.999966,59.999966 0 0 0 579.38255,802.17341 Z"
         style="fill:#007f95;fill-opacity:1;fill-rule:evenodd;stroke:none;stroke-width:2.96992159" />
      <path
         inkscape:connector-curvature="0"
         style="fill:#2a2700;fill-opacity:1"
         d="m 707.55492,859.3129 c 1.44772,-1.4437 2.84525,-2.9316 4.18938,-4.4609 l -0.002,0 c 11.53016,-13.11752 19.46382,-28.95595 22.20578,-46.25775 1.28032,-8.08498 5.83286,-36.44177 -4.93332,-39.43105 -32.51682,-9.02912 -70.46307,7.82372 -91.52539,32.17488 -11.6202,13.43467 -19.60106,30.06662 -22.09996,47.7009 -1.19899,8.46412 -4.5658,34.72882 7.0215,37.20242 30.52749,6.5173 63.42961,-5.2718 85.14343,-26.9308 z m -14.27215,-40.31445 c -0.55736,0.39454 -0.99961,0.87759 -1.55209,1.25654 -1.81851,0.47474 -2.54942,-2.03779 -3.76637,-2.84649 -1.87407,1.80696 -3.7388,3.72962 -5.60943,5.58071 -1.18423,1.67415 -3.13191,2.65217 -4.26653,4.33206 0.081,1.30966 1.90004,1.7528 2.41795,2.94347 0.82864,1.37731 -0.86247,2.21619 -1.72294,2.93746 -1.81853,0.47475 -2.54943,-2.03779 -3.76638,-2.84649 -1.87407,1.80697 -3.73879,3.72961 -5.60943,5.58073 -1.18424,1.67413 -3.13191,2.65214 -4.26653,4.33204 0.0809,1.3097 1.90007,1.7528 2.41794,2.9435 0.82816,1.3776 -0.86264,2.2164 -1.72336,2.9379 -1.81852,0.4747 -2.54943,-2.0378 -3.76639,-2.8466 -3.21881,3.0984 -6.31878,6.4171 -9.59238,9.49642 -1.2625,1.3426 1.12631,1.7722 1.75939,2.6368 1.41288,1.5721 -0.6163,3.3279 -1.85588,4.1686 -2.94919,-3.0932 -6.17518,-5.9587 -9.0242,-9.1067 -0.82545,-1.37232 0.85408,-2.23382 1.74147,-2.92082 1.87471,-0.4312 2.60883,2.1038 3.88876,2.97342 1.87874,-1.78122 3.74262,-3.72932 5.61581,-5.57422 1.17744,-1.6673 3.10685,-2.6468 4.25082,-4.3072 -0.10219,-1.3908 -1.97641,-1.87682 -2.54958,-3.11851 -0.82502,-1.37245 0.85422,-2.23405 1.74182,-2.92124 1.87475,-0.43111 2.60891,2.1038 3.88879,2.97346 1.87875,-1.78122 3.74274,-3.72935 5.61587,-5.57432 1.17741,-1.66726 3.10685,-2.64674 4.25079,-4.30715 -0.10225,-1.39071 -1.97661,-1.87661 -2.54955,-3.11848 -0.82548,-1.37222 0.85405,-2.23378 1.74141,-2.92083 1.87474,-0.43087 2.60888,2.10375 3.88876,2.97348 1.87872,-1.78122 3.74271,-3.72934 5.61584,-5.5743 1.17742,-1.66726 3.10685,-2.64675 4.25079,-4.30715 -0.10225,-1.39072 -1.97661,-1.87661 -2.54955,-3.11847 -0.82547,-1.37224 0.85406,-2.23379 1.74141,-2.92084 1.87473,-0.43111 2.60884,2.10385 3.88876,2.97347 3.1423,-3.01478 6.21907,-6.2774 9.39841,-9.28662 1.5687,-1.45389 -0.90141,-2.09918 -1.70632,-2.99011 -1.41282,-1.57209 0.61632,-3.32787 1.85594,-4.1686 l 6.38982,6.38983 c 0.78837,1.23775 2.73077,1.9412 3.03213,3.4191 -0.47961,0.89086 -1.37076,1.56632 -2.121,2.23555 -1.81852,0.47476 -2.54941,-2.03779 -3.76636,-2.84649 -2.69869,2.53032 -5.22156,5.3378 -7.89482,7.91605 -0.75481,0.65821 -2.95241,1.96825 -1.45279,2.98687 0.91058,0.82198 2.92547,2.25372 1.71878,3.63431 z"
         id="path5227" />
      <path
         inkscape:connector-curvature="0"
         d="m 825,767.36238 a 60,60 0 0 0 -60,60 60,60 0 0 0 60,59.99992 60,60 0 0 0 60,-59.99992 60,60 0 0 0 -60,-60 z m -1.91245,4.04357 0,4.71529 -17.84391,9.17808 -17.20724,0 a 56.082364,56.082364 0 0 1 35.05115,-13.89337 z m 3.8249,0 a 56.082364,56.082364 0 0 1 35.05114,13.89337 l -17.20723,0 -17.84391,-9.17808 0,-4.71529 z m -42.82659,17.71706 20.13812,0 5.35318,14.02022 -13.38354,23.07023 -14.65689,2.29421 -10.19773,-17.58899 a 56.082364,56.082364 0 0 1 12.74686,-21.79567 z m 61.69015,0 20.13813,0 a 56.082364,56.082364 0 0 1 12.6188,21.92252 l -10.06967,17.46214 -14.65689,-2.29421 -13.38354,-23.07023 5.35317,-14.02022 z m -31.86533,16.56935 22.17864,0 12.87371,22.43234 -11.34423,19.62954 -25.2376,0 -11.34423,-19.62954 12.87371,-22.43234 z m -43.84625,10.57949 9.30493,16.18758 0.8928,18.48057 -4.71649,2.8052 a 56.082364,56.082364 0 0 1 -6.62774,-26.38524 56.082364,56.082364 0 0 1 1.1465,-11.08811 z m 109.87114,0.12685 a 56.082364,56.082364 0 0 1 1.1465,10.96126 56.082364,56.082364 0 0 1 -6.62774,26.38524 l -4.71649,-2.8052 0.8928,-18.48057 9.30493,-16.06073 z m -67.55437,36.4537 25.2376,0 9.81354,12.109 -9.81354,16.9523 A 56.082364,56.082364 0 0 1 825,883.4432 56.082364,56.082364 0 0 1 812.3812,881.9137 l -9.81355,-16.9523 9.81355,-12.109 z m -30.46271,1.6576 16.18758,10.3234 8.92196,15.6777 a 56.082364,56.082364 0 0 1 -29.57112,-23.452 l 4.46158,-2.5491 z m 86.16302,0 4.46158,2.5491 a 56.082364,56.082364 0 0 1 -29.57112,23.3252 l 8.92196,-15.5509 16.18758,-10.3234 z"
         id="path5229"
         style="fill:#ffeafc;fill-opacity:1" />
      <path
         style="fill:#0171ff;fill-opacity:1;fill-rule:evenodd;stroke:none;stroke-width:2.96992159"
         d="m 75,767.36237 a 59.999966,59.999966 0 0 0 -9.36956,0.77241 c -16.45666,11.68271 -14.55357,21.31351 -13.43481,28.87469 0.60265,10.95633 6.4887,16.55205 7.9969,30.44565 2.31138,16.10472 -4.92571,35.53198 -9.54952,38.44708 -5.20755,3.5969 -9.92743,5.968 -15.58296,6.1517 A 59.999966,59.999966 0 0 0 75,887.3623 a 59.999966,59.999966 0 0 0 31.7944,-9.2022 c -0.5254,-2.0658 -0.6501,-4.2264 -0.4424,-6.1703 1.406,-8.6513 5.2947,-15.2127 10.3129,-23.10198 3.1775,-5.33722 4.9992,-10.67458 7.4995,-16.01194 2.8857,-7.52964 2.92,-19.5102 0.6858,-38.85355 A 59.999966,59.999966 0 0 0 75,767.36237 Z m -18.33344,2.9453 A 59.999966,59.999966 0 0 0 15,827.36236 59.999966,59.999966 0 0 0 31.12304,868.2135 c 5.67348,-0.06 10.03253,-1.629 15.28035,-5.2548 4.6238,-2.915 10.63873,-20.10278 8.32629,-35.68286 -1.50819,-13.36908 -4.24376,-10.82652 -7.47124,-30.97033 -1.34835,-7.41844 -0.0798,-17.55767 9.40812,-25.99784 z m 72.71604,31.86574 c 1.044,12.63143 1.0008,23.77667 -2.7192,34.63931 -5.7456,13.65078 -18.0409,29.76808 -16.5609,34.12168 -0.1056,1.5903 -0.2108,3.2351 0.2721,4.8106 A 59.999966,59.999966 0 0 0 135,827.36236 59.999966,59.999966 0 0 0 129.3826,802.17341 Z"
         id="path5231"
         inkscape:connector-curvature="0" />
      <path
         inkscape:connector-curvature="0"
         style="fill:#86f8fe;fill-opacity:1"
         d="m 407.55492,709.3129 c 1.44772,-1.4437 2.84525,-2.9316 4.18938,-4.4609 l -0.002,0 c 11.53016,-13.11752 19.46382,-28.95595 22.20578,-46.25775 1.28032,-8.08498 5.83286,-36.44177 -4.93332,-39.43105 -32.51682,-9.02912 -70.46307,7.82372 -91.52539,32.17488 -11.6202,13.43467 -19.60106,30.06662 -22.09996,47.7009 -1.19899,8.46412 -4.5658,34.72882 7.0215,37.20242 30.52749,6.5173 63.42961,-5.2718 85.14343,-26.9308 z m -14.27216,-40.31445 c -0.55735,0.39454 -0.9996,0.87759 -1.55208,1.25654 -1.81851,0.47474 -2.54942,-2.03779 -3.76637,-2.84649 -1.87407,1.80696 -3.7388,3.72962 -5.60943,5.58071 -1.18423,1.67415 -3.13191,2.65217 -4.26653,4.33206 0.081,1.30966 1.90004,1.7528 2.41795,2.94347 0.82864,1.37731 -0.86247,2.21619 -1.72294,2.93746 -1.81853,0.47475 -2.54943,-2.03779 -3.76638,-2.84649 -1.87407,1.80697 -3.73879,3.72961 -5.60943,5.58073 -1.18424,1.67413 -3.13191,2.65214 -4.26653,4.33204 0.0809,1.3097 1.90007,1.7528 2.41794,2.9435 0.82816,1.3776 -0.86264,2.2164 -1.72336,2.9379 -1.81852,0.4747 -2.54943,-2.0378 -3.76639,-2.8466 -3.21881,3.0984 -6.31878,6.4171 -9.59238,9.49642 -1.2625,1.3426 1.12631,1.7722 1.75939,2.6368 1.41288,1.5721 -0.6163,3.3279 -1.85588,4.1686 -2.94919,-3.0932 -6.17518,-5.9587 -9.0242,-9.1067 -0.82545,-1.37232 0.85408,-2.23382 1.74147,-2.92082 1.87471,-0.4312 2.60883,2.1038 3.88876,2.97342 1.87874,-1.78122 3.74262,-3.72932 5.61581,-5.57422 1.17744,-1.6673 3.10685,-2.6468 4.25082,-4.3072 -0.1022,-1.3908 -1.97641,-1.87682 -2.54958,-3.11851 -0.82502,-1.37245 0.85422,-2.23405 1.74182,-2.92124 1.87475,-0.43111 2.60891,2.1038 3.88879,2.97346 1.87875,-1.78122 3.74274,-3.72935 5.61587,-5.57432 1.17741,-1.66726 3.10685,-2.64674 4.25079,-4.30715 -0.10225,-1.39071 -1.97661,-1.87661 -2.54955,-3.11848 -0.82548,-1.37222 0.85405,-2.23378 1.74141,-2.92083 1.87474,-0.43087 2.60888,2.10375 3.88876,2.97348 1.87872,-1.78122 3.74271,-3.72934 5.61584,-5.5743 1.17742,-1.66726 3.10685,-2.64675 4.25079,-4.30715 -0.10225,-1.39072 -1.97661,-1.87661 -2.54955,-3.11847 -0.82547,-1.37224 0.85406,-2.23379 1.74141,-2.92084 1.87473,-0.43111 2.60884,2.10385 3.88876,2.97347 3.1423,-3.01478 6.21907,-6.2774 9.39841,-9.28662 1.5687,-1.45389 -0.90141,-2.09918 -1.70632,-2.99011 -1.41282,-1.57209 0.61632,-3.32787 1.85594,-4.1686 l 6.38982,6.38983 c 0.78837,1.23775 2.73077,1.9412 3.03213,3.4191 -0.47961,0.89086 -1.37076,1.56632 -2.121,2.23555 -1.81852,0.47476 -2.54941,-2.03779 -3.76636,-2.84649 -2.69869,2.53032 -5.22156,5.3378 -7.89482,7.91605 -0.75481,0.65821 -2.95241,1.96825 -1.45279,2.98687 0.91058,0.82198 2.92547,2.25372 1.71878,3.63431 z"
         id="path5233" />
      <path
         style="opacity:1;fill:#002704;fill-opacity:1;stroke:none;stroke-width:0.75600332;stroke-miterlimit:4;stroke-dasharray:none;stroke-opacity:1"
         d="m 150,452.3623 150,0 0,150 -150,0 z"
         id="path4613"
         inkscape:connector-curvature="0" />
      <path
         inkscape:connector-curvature="0"
         id="path4623"
         d="m 300,302.3623 150,0 0,150 -150,0 z"
         style="opacity:1;fill:#91ffc9;fill-opacity:1;stroke:none;stroke-width:0.75600332;stroke-miterlimit:4;stroke-dasharray:none;stroke-opacity:1" />
      <path
         inkscape:connector-curvature="0"
         d="m 525,617.36238 a 60,60 0 0 0 -60,60 60,60 0 0 0 60,59.99992 60,60 0 0 0 60,-59.99992 60,60 0 0 0 -60,-60 z m -1.91245,4.04357 0,4.71529 -17.84391,9.17808 -17.20724,0 a 56.082364,56.082364 0 0 1 35.05115,-13.89337 z m 3.8249,0 a 56.082364,56.082364 0 0 1 35.05114,13.89337 l -17.20723,0 -17.84391,-9.17808 0,-4.71529 z m -42.82659,17.71706 20.13812,0 5.35318,14.02022 -13.38354,23.07023 -14.65689,2.29421 -10.19773,-17.58899 a 56.082364,56.082364 0 0 1 12.74686,-21.79567 z m 61.69015,0 20.13813,0 a 56.082364,56.082364 0 0 1 12.6188,21.92252 l -10.06967,17.46214 -14.65689,-2.29421 -13.38354,-23.07023 5.35317,-14.02022 z m -31.86533,16.56935 22.17864,0 12.87371,22.43234 -11.34423,19.62954 -25.2376,0 -11.34423,-19.62954 12.87371,-22.43234 z m -43.84625,10.57949 9.30493,16.18758 0.8928,18.48057 -4.71649,2.8052 a 56.082364,56.082364 0 0 1 -6.62774,-26.38524 56.082364,56.082364 0 0 1 1.1465,-11.08811 z m 109.87114,0.12685 a 56.082364,56.082364 0 0 1 1.1465,10.96126 56.082364,56.082364 0 0 1 -6.62774,26.38524 l -4.71649,-2.8052 0.8928,-18.48057 9.30493,-16.06073 z m -67.55437,36.4537 25.2376,0 9.81354,12.109 -9.81354,16.9523 A 56.082364,56.082364 0 0 1 525,733.4432 56.082364,56.082364 0 0 1 512.3812,731.9137 l -9.81355,-16.9523 9.81355,-12.109 z m -30.46271,1.6576 16.18758,10.3234 8.92196,15.6777 a 56.082364,56.082364 0 0 1 -29.57112,-23.452 l 4.46158,-2.5491 z m 86.16302,0 4.46158,2.5491 a 56.082364,56.082364 0 0 1 -29.57112,23.3252 l 8.92196,-15.5509 16.18758,-10.3234 z"
         id="path5235"
         style="fill:#03c700;fill-opacity:1" />
      <path
         inkscape:connector-curvature="0"
         id="path4615"
         d="m 0,602.3623 150,0 0,150 -150,0 z"
         style="opacity:1;fill:#9507ff;fill-opacity:1;stroke:none;stroke-width:0.75600332;stroke-miterlimit:4;stroke-dasharray:none;stroke-opacity:1" />
      <path
         style="fill:#e8fffc;fill-opacity:1;fill-rule:evenodd;stroke:none;stroke-width:2.96992159"
         d="m 675,617.36237 a 59.999966,59.999966 0 0 0 -9.36956,0.77241 c -16.45666,11.68271 -14.55357,21.31351 -13.43481,28.87469 0.60265,10.95633 6.4887,16.55205 7.9969,30.44565 2.31138,16.10472 -4.92571,35.53198 -9.54952,38.44708 -5.20755,3.5969 -9.92743,5.968 -15.58296,6.1517 A 59.999966,59.999966 0 0 0 675,737.3623 a 59.999966,59.999966 0 0 0 31.79442,-9.2022 c -0.5254,-2.0658 -0.6501,-4.2264 -0.44237,-6.1703 1.40595,-8.6513 5.29469,-15.2127 10.31285,-23.10198 3.1775,-5.33722 4.9992,-10.67458 7.49948,-16.01194 2.88572,-7.52964 2.91999,-19.5102 0.68584,-38.85355 A 59.999966,59.999966 0 0 0 675,617.36237 Z m -18.33344,2.9453 A 59.999966,59.999966 0 0 0 615,677.36236 59.999966,59.999966 0 0 0 631.12304,718.2135 c 5.67348,-0.06 10.03253,-1.629 15.28035,-5.2548 4.6238,-2.915 10.63873,-20.10278 8.32629,-35.68286 -1.50819,-13.36908 -4.24376,-10.82652 -7.47124,-30.97033 -1.34835,-7.41844 -0.0798,-17.55767 9.40812,-25.99784 z m 72.71599,31.86574 c 1.04401,12.63143 1.00083,23.77667 -2.71917,34.63931 -5.74562,13.65078 -18.04093,29.76808 -16.56086,34.12168 -0.1056,1.5903 -0.21079,3.2351 0.2721,4.8106 A 59.999966,59.999966 0 0 0 735,677.36236 59.999966,59.999966 0 0 0 729.38255,652.17341 Z"
         id="path5237"
         inkscape:connector-curvature="0" />
      <path
         id="path5239"
         d="m 857.55492,709.3129 c 1.44772,-1.4437 2.84525,-2.9316 4.18938,-4.4609 l -0.002,0 c 11.53016,-13.11752 19.46382,-28.95595 22.20578,-46.25775 1.28032,-8.08498 5.83286,-36.44177 -4.93332,-39.43105 -32.51682,-9.02912 -70.46307,7.82372 -91.52539,32.17488 -11.6202,13.43467 -19.60106,30.06662 -22.09996,47.7009 -1.19899,8.46412 -4.5658,34.72882 7.0215,37.20242 30.52749,6.5173 63.42961,-5.2718 85.14343,-26.9308 z m -14.27215,-40.31445 c -0.55736,0.39454 -0.99961,0.87759 -1.55209,1.25654 -1.81851,0.47474 -2.54942,-2.03779 -3.76637,-2.84649 -1.87407,1.80696 -3.7388,3.72962 -5.60943,5.58071 -1.18423,1.67415 -3.13191,2.65217 -4.26653,4.33206 0.081,1.30966 1.90004,1.7528 2.41795,2.94347 0.82864,1.37731 -0.86247,2.21619 -1.72294,2.93746 -1.81853,0.47475 -2.54943,-2.03779 -3.76638,-2.84649 -1.87407,1.80697 -3.73879,3.72961 -5.60943,5.58073 -1.18424,1.67413 -3.13191,2.65214 -4.26653,4.33204 0.0809,1.3097 1.90007,1.7528 2.41794,2.9435 0.82816,1.3776 -0.86264,2.2164 -1.72336,2.9379 -1.81852,0.4747 -2.54943,-2.0378 -3.76639,-2.8466 -3.21881,3.0984 -6.31878,6.4171 -9.59238,9.49642 -1.2625,1.3426 1.12631,1.7722 1.75939,2.6368 1.41288,1.5721 -0.6163,3.3279 -1.85588,4.1686 -2.94919,-3.0932 -6.17518,-5.9587 -9.0242,-9.1067 -0.82545,-1.37232 0.85408,-2.23382 1.74147,-2.92082 1.87471,-0.4312 2.60883,2.1038 3.88876,2.97342 1.87874,-1.78122 3.74262,-3.72932 5.61581,-5.57422 1.17744,-1.6673 3.10685,-2.6468 4.25082,-4.3072 -0.10219,-1.3908 -1.97641,-1.87682 -2.54958,-3.11851 -0.82502,-1.37245 0.85422,-2.23405 1.74182,-2.92124 1.87475,-0.43111 2.60891,2.1038 3.88879,2.97346 1.87875,-1.78122 3.74274,-3.72935 5.61587,-5.57432 1.17741,-1.66726 3.10685,-2.64674 4.25079,-4.30715 -0.10225,-1.39071 -1.97661,-1.87661 -2.54955,-3.11848 -0.82548,-1.37222 0.85405,-2.23378 1.74141,-2.92083 1.87474,-0.43087 2.60888,2.10375 3.88876,2.97348 1.87872,-1.78122 3.74271,-3.72934 5.61584,-5.5743 1.17742,-1.66726 3.10685,-2.64675 4.25079,-4.30715 -0.10225,-1.39072 -1.97661,-1.87661 -2.54955,-3.11847 -0.82547,-1.37224 0.85406,-2.23379 1.74141,-2.92084 1.87473,-0.43111 2.60884,2.10385 3.88876,2.97347 3.1423,-3.01478 6.21907,-6.2774 9.39841,-9.28662 1.5687,-1.45389 -0.90141,-2.09918 -1.70632,-2.99011 -1.41282,-1.57209 0.61632,-3.32787 1.85594,-4.1686 l 6.38982,6.38983 c 0.78837,1.23775 2.73077,1.9412 3.03213,3.4191 -0.47961,0.89086 -1.37076,1.56632 -2.121,2.23555 -1.81852,0.47476 -2.54941,-2.03779 -3.76636,-2.84649 -2.69869,2.53032 -5.22156,5.3378 -7.89482,7.91605 -0.75481,0.65821 -2.95241,1.96825 -1.45279,2.98687 0.91058,0.82198 2.92547,2.25372 1.71878,3.63431 z"
         style="fill:#ac56fe;fill-opacity:1"
         inkscape:connector-curvature="0" />
      <path
         style="fill:#fffaae;fill-opacity:1"
         id="path5241"
         d="m 75,617.36238 a 60,60 0 0 0 -60,60 60,60 0 0 0 60,59.99992 60,60 0 0 0 60,-59.99992 60,60 0 0 0 -60,-60 z m -1.91245,4.04357 0,4.71529 -17.84391,9.17808 -17.20724,0 a 56.082364,56.082364 0 0 1 35.05115,-13.89337 z m 3.8249,0 a 56.082364,56.082364 0 0 1 35.05115,13.89337 l -17.20724,0 -17.84391,-9.17808 0,-4.71529 z m -42.82659,17.71706 20.13812,0 5.35318,14.02022 -13.38354,23.07023 -14.65689,2.29421 L 21.339,660.91868 a 56.082364,56.082364 0 0 1 12.74686,-21.79567 z m 61.69015,0 20.13809,0 a 56.082364,56.082364 0 0 1 12.6188,21.92252 l -10.0696,17.46214 -14.6569,-2.29421 -13.38356,-23.07023 5.35317,-14.02022 z m -31.86533,16.56935 22.17864,0 12.87371,22.43234 -11.34423,19.62954 -25.2376,0 -11.34423,-19.62954 12.87371,-22.43234 z m -43.84625,10.57949 9.30493,16.18758 0.8928,18.48057 -4.71649,2.8052 a 56.082364,56.082364 0 0 1 -6.62774,-26.38524 56.082364,56.082364 0 0 1 1.1465,-11.08811 z m 109.87117,0.12685 a 56.082364,56.082364 0 0 1 1.1465,10.96126 56.082364,56.082364 0 0 1 -6.6278,26.38524 l -4.7165,-2.8052 0.8928,-18.48057 9.305,-16.06073 z m -67.5544,36.4537 25.2376,0 9.81354,12.109 -9.81354,16.9523 A 56.082364,56.082364 0 0 1 75,733.4432 56.082364,56.082364 0 0 1 62.3812,731.9137 l -9.81355,-16.9523 9.81355,-12.109 z m -30.46271,1.6576 16.18758,10.3234 8.92196,15.6777 a 56.082364,56.082364 0 0 1 -29.57112,-23.452 l 4.46158,-2.5491 z m 86.16301,0 4.4616,2.5491 a 56.082364,56.082364 0 0 1 -29.57113,23.3252 l 8.92193,-15.5509 16.1876,-10.3234 z"
         inkscape:connector-curvature="0" />
      <path
         inkscape:connector-curvature="0"
         id="path5243"
         d="m 225,617.36237 a 59.999966,59.999966 0 0 0 -9.3696,0.77241 c -16.4566,11.68271 -14.5535,21.31351 -13.4348,28.87469 0.6027,10.95633 6.4887,16.55205 7.9969,30.44565 2.3114,16.10472 -4.9257,35.53198 -9.5495,38.44708 -5.2075,3.5969 -9.9274,5.968 -15.5829,6.1517 A 59.999966,59.999966 0 0 0 225,737.3623 a 59.999966,59.999966 0 0 0 31.7944,-9.2022 c -0.5254,-2.0658 -0.6501,-4.2264 -0.4424,-6.1703 1.406,-8.6513 5.2947,-15.2127 10.3129,-23.10198 3.1775,-5.33722 4.9992,-10.67458 7.4995,-16.01194 2.8857,-7.52964 2.92,-19.5102 0.6858,-38.85355 A 59.999966,59.999966 0 0 0 225,617.36237 Z m -18.3334,2.9453 A 59.999966,59.999966 0 0 0 165,677.36236 59.999966,59.999966 0 0 0 181.123,718.2135 c 5.6735,-0.06 10.0326,-1.629 15.2804,-5.2548 4.6238,-2.915 10.6387,-20.10278 8.3263,-35.68286 -1.5082,-13.36908 -4.2438,-10.82652 -7.4713,-30.97033 -1.3483,-7.41844 -0.08,-17.55767 9.4082,-25.99784 z m 72.716,31.86574 c 1.044,12.63143 1.0008,23.77667 -2.7192,34.63931 -5.7456,13.65078 -18.0409,29.76808 -16.5609,34.12168 -0.1056,1.5903 -0.2108,3.2351 0.2721,4.8106 A 59.999966,59.999966 0 0 0 285,677.36236 59.999966,59.999966 0 0 0 279.3826,652.17341 Z"
         style="fill:#ff8f80;fill-opacity:1;fill-rule:evenodd;stroke:none;stroke-width:2.96992159" />
      <path
         id="path5245"
         d="m 557.55492,559.3129 c 1.44772,-1.4437 2.84525,-2.9316 4.18938,-4.4609 l -0.002,0 c 11.53016,-13.11752 19.46382,-28.95595 22.20578,-46.25775 1.28032,-8.08498 5.83286,-36.44177 -4.93332,-39.43105 -32.51682,-9.02912 -70.46307,7.82372 -91.52539,32.17488 -11.6202,13.43467 -19.60106,30.06662 -22.09996,47.7009 -1.19899,8.46412 -4.5658,34.72882 7.0215,37.20242 30.52749,6.5173 63.42961,-5.2718 85.14343,-26.9308 z m -14.27216,-40.31445 c -0.55735,0.39454 -0.9996,0.87759 -1.55208,1.25654 -1.81851,0.47474 -2.54942,-2.03779 -3.76637,-2.84649 -1.87407,1.80696 -3.7388,3.72962 -5.60943,5.58071 -1.18423,1.67415 -3.13191,2.65217 -4.26653,4.33206 0.081,1.30966 1.90004,1.7528 2.41795,2.94347 0.82864,1.37731 -0.86247,2.21619 -1.72294,2.93746 -1.81853,0.47475 -2.54943,-2.03779 -3.76638,-2.84649 -1.87407,1.80697 -3.73879,3.72961 -5.60943,5.58073 -1.18424,1.67413 -3.13191,2.65214 -4.26653,4.33204 0.0809,1.3097 1.90007,1.7528 2.41794,2.9435 0.82816,1.3776 -0.86264,2.2164 -1.72336,2.9379 -1.81852,0.4747 -2.54943,-2.0378 -3.76639,-2.8466 -3.21881,3.0984 -6.31878,6.4171 -9.59238,9.49642 -1.2625,1.3426 1.12631,1.7722 1.75939,2.6368 1.41288,1.5721 -0.6163,3.3279 -1.85588,4.1686 -2.94919,-3.0932 -6.17518,-5.9587 -9.0242,-9.1067 -0.82545,-1.37232 0.85408,-2.23382 1.74147,-2.92082 1.87471,-0.4312 2.60883,2.1038 3.88876,2.97342 1.87874,-1.78122 3.74262,-3.72932 5.61581,-5.57422 1.17744,-1.6673 3.10685,-2.6468 4.25082,-4.3072 -0.1022,-1.3908 -1.97641,-1.87682 -2.54958,-3.11851 -0.82502,-1.37245 0.85422,-2.23405 1.74182,-2.92124 1.87475,-0.43111 2.60891,2.1038 3.88879,2.97346 1.87875,-1.78122 3.74274,-3.72935 5.61587,-5.57432 1.17741,-1.66726 3.10685,-2.64674 4.25079,-4.30715 -0.10225,-1.39071 -1.97661,-1.87661 -2.54955,-3.11848 -0.82548,-1.37222 0.85405,-2.23378 1.74141,-2.92083 1.87474,-0.43087 2.60888,2.10375 3.88876,2.97348 1.87872,-1.78122 3.74271,-3.72934 5.61584,-5.5743 1.17742,-1.66726 3.10685,-2.64675 4.25079,-4.30715 -0.10225,-1.39072 -1.97661,-1.87661 -2.54955,-3.11847 -0.82547,-1.37224 0.85406,-2.23379 1.74141,-2.92084 1.87473,-0.43111 2.60884,2.10385 3.88876,2.97347 3.1423,-3.01478 6.21907,-6.2774 9.39841,-9.28662 1.5687,-1.45389 -0.90141,-2.09918 -1.70632,-2.99011 -1.41282,-1.57209 0.61632,-3.32787 1.85594,-4.1686 l 6.38982,6.38983 c 0.78837,1.23775 2.73077,1.9412 3.03213,3.4191 -0.47961,0.89086 -1.37076,1.56632 -2.121,2.23555 -1.81852,0.47476 -2.54941,-2.03779 -3.76636,-2.84649 -2.69869,2.53032 -5.22156,5.3378 -7.89482,7.91605 -0.75481,0.65821 -2.95241,1.96825 -1.45279,2.98687 0.91058,0.82198 2.92547,2.25372 1.71878,3.63431 z"
         style="fill:#ffb5a4;fill-opacity:1"
         inkscape:connector-curvature="0" />
      <path
         style="fill:#000a5d;fill-opacity:1"
         id="path5247"
         d="m 675,467.36238 a 60,60 0 0 0 -60,60 60,60 0 0 0 60,59.99992 60,60 0 0 0 60,-59.99992 60,60 0 0 0 -60,-60 z m -1.91245,4.04357 0,4.71529 -17.84391,9.17808 -17.20724,0 a 56.082364,56.082364 0 0 1 35.05115,-13.89337 z m 3.8249,0 a 56.082364,56.082364 0 0 1 35.05114,13.89337 l -17.20723,0 -17.84391,-9.17808 0,-4.71529 z m -42.82659,17.71706 20.13812,0 5.35318,14.02022 -13.38354,23.07023 -14.65689,2.29421 -10.19773,-17.58899 a 56.082364,56.082364 0 0 1 12.74686,-21.79567 z m 61.69015,0 20.13813,0 a 56.082364,56.082364 0 0 1 12.6188,21.92252 l -10.06967,17.46214 -14.65689,-2.29421 -13.38354,-23.07023 5.35317,-14.02022 z m -31.86533,16.56935 22.17864,0 12.87371,22.43234 -11.34423,19.62954 -25.2376,0 -11.34423,-19.62954 12.87371,-22.43234 z m -43.84625,10.57949 9.30493,16.18758 0.8928,18.48057 -4.71649,2.8052 a 56.082364,56.082364 0 0 1 -6.62774,-26.38524 56.082364,56.082364 0 0 1 1.1465,-11.08811 z m 109.87114,0.12685 a 56.082364,56.082364 0 0 1 1.1465,10.96126 56.082364,56.082364 0 0 1 -6.62774,26.38524 l -4.71649,-2.8052 0.8928,-18.48057 9.30493,-16.06073 z m -67.55437,36.4537 25.2376,0 9.81354,12.109 -9.81354,16.9523 A 56.082364,56.082364 0 0 1 675,583.4432 56.082364,56.082364 0 0 1 662.3812,581.9137 l -9.81355,-16.9523 9.81355,-12.109 z m -30.46271,1.6576 16.18758,10.3234 8.92196,15.6777 a 56.082364,56.082364 0 0 1 -29.57112,-23.452 l 4.46158,-2.5491 z m 86.16302,0 4.46158,2.5491 a 56.082364,56.082364 0 0 1 -29.57112,23.3252 l 8.92196,-15.5509 16.18758,-10.3234 z"
         inkscape:connector-curvature="0" />
      <path
         inkscape:connector-curvature="0"
         id="path5249"
         d="m 825,467.36237 a 59.999966,59.999966 0 0 0 -9.36956,0.77241 c -16.45666,11.68271 -14.55357,21.31351 -13.43481,28.87469 0.60265,10.95633 6.4887,16.55205 7.9969,30.44565 2.31138,16.10472 -4.92571,35.53198 -9.54952,38.44708 -5.20755,3.5969 -9.92743,5.968 -15.58296,6.1517 A 59.999966,59.999966 0 0 0 825,587.3623 a 59.999966,59.999966 0 0 0 31.79442,-9.2022 c -0.5254,-2.0658 -0.6501,-4.2264 -0.44237,-6.1703 1.40595,-8.6513 5.29469,-15.2127 10.31285,-23.10198 3.1775,-5.33722 4.9992,-10.67458 7.49948,-16.01194 2.88572,-7.52964 2.91999,-19.5102 0.68584,-38.85355 A 59.999966,59.999966 0 0 0 825,467.36237 Z m -18.33344,2.9453 A 59.999966,59.999966 0 0 0 765,527.36236 59.999966,59.999966 0 0 0 781.12304,568.2135 c 5.67348,-0.06 10.03253,-1.629 15.28035,-5.2548 4.6238,-2.915 10.63873,-20.10278 8.32629,-35.68286 -1.50819,-13.36908 -4.24376,-10.82652 -7.47124,-30.97033 -1.34835,-7.41844 -0.0798,-17.55767 9.40812,-25.99784 z m 72.71599,31.86574 c 1.04401,12.63143 1.00083,23.77667 -2.71917,34.63931 -5.74562,13.65078 -18.04093,29.76808 -16.56086,34.12168 -0.1056,1.5903 -0.21079,3.2351 0.2721,4.8106 A 59.999966,59.999966 0 0 0 885,527.36236 59.999966,59.999966 0 0 0 879.38255,502.17341 Z"
         style="fill:#a11dfe;fill-opacity:1;fill-rule:evenodd;stroke:none;stroke-width:2.96992159" />
      <path
         inkscape:connector-curvature="0"
         style="fill:#005c47;fill-opacity:1"
         d="m 107.5549,559.3129 c 1.4477,-1.4437 2.8453,-2.9316 4.1894,-4.4609 l 0,0 c 11.5302,-13.11752 19.4638,-28.95595 22.2058,-46.25775 1.2803,-8.08498 5.8328,-36.44177 -4.9333,-39.43105 -32.51686,-9.02912 -70.46311,7.82372 -91.52543,32.17488 -11.6202,13.43467 -19.60106,30.06662 -22.09996,47.7009 -1.19899,8.46412 -4.5658,34.72882 7.0215,37.20242 30.52749,6.5173 63.42961,-5.2718 85.14339,-26.9308 z M 93.28277,518.99845 c -0.55736,0.39454 -0.99961,0.87759 -1.55209,1.25654 -1.81851,0.47474 -2.54942,-2.03779 -3.76637,-2.84649 -1.87407,1.80696 -3.7388,3.72962 -5.60943,5.58071 -1.18423,1.67415 -3.13191,2.65217 -4.26653,4.33206 0.081,1.30966 1.90004,1.7528 2.41795,2.94347 0.82864,1.37731 -0.86247,2.21619 -1.72294,2.93746 -1.81853,0.47475 -2.54943,-2.03779 -3.76638,-2.84649 -1.87407,1.80697 -3.73879,3.72961 -5.60943,5.58073 -1.18424,1.67413 -3.13191,2.65214 -4.26653,4.33204 0.0809,1.3097 1.90007,1.7528 2.41794,2.9435 0.82816,1.3776 -0.86264,2.2164 -1.72336,2.9379 -1.81852,0.4747 -2.54943,-2.0378 -3.76639,-2.8466 -3.21881,3.0984 -6.31878,6.4171 -9.59238,9.49642 -1.2625,1.3426 1.12631,1.7722 1.75939,2.6368 1.41288,1.5721 -0.6163,3.3279 -1.85588,4.1686 -2.94919,-3.0932 -6.17518,-5.9587 -9.0242,-9.1067 -0.82545,-1.37232 0.85408,-2.23382 1.74147,-2.92082 1.87471,-0.4312 2.60883,2.1038 3.88876,2.97342 1.87874,-1.78122 3.74262,-3.72932 5.61581,-5.57422 1.17744,-1.6673 3.10685,-2.6468 4.25082,-4.3072 -0.10219,-1.3908 -1.97641,-1.87682 -2.54958,-3.11851 -0.82502,-1.37245 0.85422,-2.23405 1.74182,-2.92124 1.87475,-0.43111 2.60891,2.1038 3.88879,2.97346 1.87875,-1.78122 3.74274,-3.72935 5.61587,-5.57432 1.17741,-1.66726 3.10685,-2.64674 4.25079,-4.30715 -0.10225,-1.39071 -1.97661,-1.87661 -2.54955,-3.11848 -0.82548,-1.37222 0.85405,-2.23378 1.74141,-2.92083 1.87474,-0.43087 2.60888,2.10375 3.88876,2.97348 1.87872,-1.78122 3.74271,-3.72934 5.61584,-5.5743 1.17742,-1.66726 3.10685,-2.64675 4.25079,-4.30715 -0.10225,-1.39072 -1.97661,-1.87661 -2.54955,-3.11847 -0.82547,-1.37224 0.85406,-2.23379 1.74141,-2.92084 1.87473,-0.43111 2.60884,2.10385 3.88876,2.97347 3.1423,-3.01478 6.21907,-6.2774 9.39841,-9.28662 1.5687,-1.45389 -0.90141,-2.09918 -1.70632,-2.99011 -1.41282,-1.57209 0.61632,-3.32787 1.85594,-4.1686 l 6.38981,6.38983 c 0.7884,1.23775 2.7308,1.9412 3.0321,3.4191 -0.4796,0.89086 -1.3707,1.56632 -2.121,2.23555 -1.8185,0.47476 -2.5494,-2.03779 -3.7663,-2.84649 -2.69871,2.53032 -5.22158,5.3378 -7.89484,7.91605 -0.75481,0.65821 -2.95241,1.96825 -1.45279,2.98687 0.91058,0.82198 2.92547,2.25372 1.71878,3.63431 z"
         id="path5251" />
      <path
         inkscape:connector-curvature="0"
         d="m 225,467.36238 a 60,60 0 0 0 -60,60 60,60 0 0 0 60,59.99992 60,60 0 0 0 60,-59.99992 60,60 0 0 0 -60,-60 z m -1.9124,4.04357 0,4.71529 -17.844,9.17808 -17.2072,0 a 56.082364,56.082364 0 0 1 35.0512,-13.89337 z m 3.8248,0 a 56.082364,56.082364 0 0 1 35.0512,13.89337 l -17.2072,0 -17.844,-9.17808 0,-4.71529 z m -42.8265,17.71706 20.1381,0 5.3532,14.02022 -13.3836,23.07023 -14.6569,2.29421 -10.1977,-17.58899 a 56.082364,56.082364 0 0 1 12.7469,-21.79567 z m 61.6901,0 20.1381,0 a 56.082364,56.082364 0 0 1 12.6188,21.92252 l -10.0696,17.46214 -14.6569,-2.29421 -13.3836,-23.07023 5.3532,-14.02022 z m -31.8653,16.56935 22.1786,0 12.8737,22.43234 -11.3442,19.62954 -25.2376,0 -11.3442,-19.62954 12.8737,-22.43234 z m -43.8463,10.57949 9.305,16.18758 0.8928,18.48057 -4.7165,2.8052 a 56.082364,56.082364 0 0 1 -6.6278,-26.38524 56.082364,56.082364 0 0 1 1.1465,-11.08811 z m 109.8712,0.12685 a 56.082364,56.082364 0 0 1 1.1465,10.96126 56.082364,56.082364 0 0 1 -6.6278,26.38524 l -4.7165,-2.8052 0.8928,-18.48057 9.305,-16.06073 z m -67.5544,36.4537 25.2376,0 9.8135,12.109 -9.8135,16.9523 A 56.082364,56.082364 0 0 1 225,583.4432 56.082364,56.082364 0 0 1 212.3812,581.9137 l -9.8135,-16.9523 9.8135,-12.109 z m -30.4627,1.6576 16.1876,10.3234 8.9219,15.6777 a 56.082364,56.082364 0 0 1 -29.5711,-23.452 l 4.4616,-2.5491 z m 86.163,0 4.4616,2.5491 a 56.082364,56.082364 0 0 1 -29.5711,23.3252 l 8.9219,-15.5509 16.1876,-10.3234 z"
         id="path5253"
         style="fill:#ffe7a2;fill-opacity:1" />
      <path
         style="fill:#dfffe0;fill-opacity:1;fill-rule:evenodd;stroke:none;stroke-width:2.96992159"
         d="m 375,467.36237 a 59.999966,59.999966 0 0 0 -9.3696,0.77241 c -16.4566,11.68271 -14.5535,21.31351 -13.4348,28.87469 0.6027,10.95633 6.4887,16.55205 7.9969,30.44565 2.3114,16.10472 -4.9257,35.53198 -9.5495,38.44708 -5.2075,3.5969 -9.9274,5.968 -15.5829,6.1517 A 59.999966,59.999966 0 0 0 375,587.3623 a 59.999966,59.999966 0 0 0 31.7944,-9.2022 c -0.5254,-2.0658 -0.6501,-4.2264 -0.4424,-6.1703 1.406,-8.6513 5.2947,-15.2127 10.3129,-23.10198 3.1775,-5.33722 4.9992,-10.67458 7.4995,-16.01194 2.8857,-7.52964 2.92,-19.5102 0.6858,-38.85355 A 59.999966,59.999966 0 0 0 375,467.36237 Z m -18.3334,2.9453 A 59.999966,59.999966 0 0 0 315,527.36236 59.999966,59.999966 0 0 0 331.123,568.2135 c 5.6735,-0.06 10.0326,-1.629 15.2804,-5.2548 4.6238,-2.915 10.6387,-20.10278 8.3263,-35.68286 -1.5082,-13.36908 -4.2438,-10.82652 -7.4713,-30.97033 -1.3483,-7.41844 -0.08,-17.55767 9.4082,-25.99784 z m 72.716,31.86574 c 1.044,12.63143 1.0008,23.77667 -2.7192,34.63931 -5.7456,13.65078 -18.0409,29.76808 -16.5609,34.12168 -0.1056,1.5903 -0.2108,3.2351 0.2721,4.8106 A 59.999966,59.999966 0 0 0 435,527.36236 59.999966,59.999966 0 0 0 429.3826,502.17341 Z"
         id="path5255"
         inkscape:connector-curvature="0" />
      <path
         inkscape:connector-curvature="0"
         style="fill:#ff8808;fill-opacity:1"
         d="m 707.55492,409.3129 c 1.44772,-1.4437 2.84525,-2.9316 4.18938,-4.4609 l -0.002,0 c 11.53016,-13.11752 19.46382,-28.95595 22.20578,-46.25775 1.28032,-8.08498 5.83286,-36.44177 -4.93332,-39.43105 -32.51682,-9.02912 -70.46307,7.82372 -91.52539,32.17488 -11.6202,13.43467 -19.60106,30.06662 -22.09996,47.7009 -1.19899,8.46412 -4.5658,34.72882 7.0215,37.20242 30.52749,6.5173 63.42961,-5.2718 85.14343,-26.9308 z m -14.27216,-40.31445 c -0.55735,0.39454 -0.9996,0.87759 -1.55208,1.25654 -1.81851,0.47474 -2.54942,-2.03779 -3.76637,-2.84649 -1.87407,1.80696 -3.7388,3.72962 -5.60943,5.58071 -1.18423,1.67415 -3.13191,2.65217 -4.26653,4.33206 0.081,1.30966 1.90004,1.7528 2.41795,2.94347 0.82864,1.37731 -0.86247,2.21619 -1.72294,2.93746 -1.81853,0.47475 -2.54943,-2.03779 -3.76638,-2.84649 -1.87407,1.80697 -3.73879,3.72961 -5.60943,5.58073 -1.18424,1.67413 -3.13191,2.65214 -4.26653,4.33204 0.0809,1.3097 1.90007,1.7528 2.41794,2.9435 0.82816,1.3776 -0.86264,2.2164 -1.72336,2.9379 -1.81852,0.4747 -2.54943,-2.0378 -3.76639,-2.8466 -3.21881,3.0984 -6.31878,6.4171 -9.59238,9.49642 -1.2625,1.3426 1.12631,1.7722 1.75939,2.6368 1.41288,1.5721 -0.6163,3.3279 -1.85588,4.1686 -2.94919,-3.0932 -6.17518,-5.9587 -9.0242,-9.1067 -0.82545,-1.37232 0.85408,-2.23382 1.74147,-2.92082 1.87471,-0.4312 2.60883,2.1038 3.88876,2.97342 1.87874,-1.78122 3.74262,-3.72932 5.61581,-5.57422 1.17744,-1.6673 3.10685,-2.6468 4.25082,-4.3072 -0.1022,-1.3908 -1.97641,-1.87682 -2.54958,-3.11851 -0.82502,-1.37245 0.85422,-2.23405 1.74182,-2.92124 1.87475,-0.43111 2.60891,2.1038 3.88879,2.97346 1.87875,-1.78122 3.74274,-3.72935 5.61587,-5.57432 1.17741,-1.66726 3.10685,-2.64674 4.25079,-4.30715 -0.10225,-1.39071 -1.97661,-1.87661 -2.54955,-3.11848 -0.82548,-1.37222 0.85405,-2.23378 1.74141,-2.92083 1.87474,-0.43087 2.60888,2.10375 3.88876,2.97348 1.87872,-1.78122 3.74271,-3.72934 5.61584,-5.5743 1.17742,-1.66726 3.10685,-2.64675 4.25079,-4.30715 -0.10225,-1.39072 -1.97661,-1.87661 -2.54955,-3.11847 -0.82547,-1.37224 0.85406,-2.23379 1.74141,-2.92084 1.87473,-0.43111 2.60884,2.10385 3.88876,2.97347 3.1423,-3.01478 6.21907,-6.2774 9.39841,-9.28662 1.5687,-1.45389 -0.90141,-2.09918 -1.70632,-2.99011 -1.41282,-1.57209 0.61632,-3.32787 1.85594,-4.1686 l 6.38982,6.38983 c 0.78837,1.23775 2.73077,1.9412 3.03213,3.4191 -0.47961,0.89086 -1.37076,1.56632 -2.121,2.23555 -1.81852,0.47476 -2.54941,-2.03779 -3.76636,-2.84649 -2.69869,2.53032 -5.22156,5.3378 -7.89482,7.91605 -0.75481,0.65821 -2.95241,1.96825 -1.45279,2.98687 0.91058,0.82198 2.92547,2.25372 1.71878,3.63431 z"
         id="path5257" />
      <path
         inkscape:connector-curvature="0"
         id="path4625"
         d="m 150,152.3623 150,0 0,150 -150,0 z"
         style="opacity:1;fill:#c2ff9f;fill-opacity:1;stroke:none;stroke-width:0.75600332;stroke-miterlimit:4;stroke-dasharray:none;stroke-opacity:1" />
      <path
         inkscape:connector-curvature="0"
         d="m 825,317.36238 a 60,60 0 0 0 -60,60 60,60 0 0 0 60,59.99992 60,60 0 0 0 60,-59.99992 60,60 0 0 0 -60,-60 z m -1.91245,4.04357 0,4.71529 -17.84391,9.17808 -17.20724,0 a 56.082364,56.082364 0 0 1 35.05115,-13.89337 z m 3.8249,0 a 56.082364,56.082364 0 0 1 35.05114,13.89337 l -17.20723,0 -17.84391,-9.17808 0,-4.71529 z m -42.82659,17.71706 20.13812,0 5.35318,14.02022 -13.38354,23.07023 -14.65689,2.29421 -10.19773,-17.58899 a 56.082364,56.082364 0 0 1 12.74686,-21.79567 z m 61.69015,0 20.13813,0 a 56.082364,56.082364 0 0 1 12.6188,21.92252 l -10.06967,17.46214 -14.65689,-2.29421 -13.38354,-23.07023 5.35317,-14.02022 z m -31.86533,16.56935 22.17864,0 12.87371,22.43234 -11.34423,19.62954 -25.2376,0 -11.34423,-19.62954 12.87371,-22.43234 z m -43.84625,10.57949 9.30493,16.18758 0.8928,18.48057 -4.71649,2.8052 a 56.082364,56.082364 0 0 1 -6.62774,-26.38524 56.082364,56.082364 0 0 1 1.1465,-11.08811 z m 109.87114,0.12685 a 56.082364,56.082364 0 0 1 1.1465,10.96126 56.082364,56.082364 0 0 1 -6.62774,26.38524 l -4.71649,-2.8052 0.8928,-18.48057 9.30493,-16.06073 z m -67.55437,36.4537 25.2376,0 9.81354,12.109 -9.81354,16.9523 A 56.082364,56.082364 0 0 1 825,433.4432 56.082364,56.082364 0 0 1 812.3812,431.9137 l -9.81355,-16.9523 9.81355,-12.109 z m -30.46271,1.6576 16.18758,10.3234 8.92196,15.6777 a 56.082364,56.082364 0 0 1 -29.57112,-23.452 l 4.46158,-2.5491 z m 86.16302,0 4.46158,2.5491 a 56.082364,56.082364 0 0 1 -29.57112,23.3252 l 8.92196,-15.5509 16.18758,-10.3234 z"
         id="path5259"
         style="fill:#110010;fill-opacity:1" />
      <path
         style="opacity:1;fill:#7f005a;fill-opacity:1;stroke:none;stroke-width:0.75600332;stroke-miterlimit:4;stroke-dasharray:none;stroke-opacity:1"
         d="m 0,302.3623 150,0 0,150 -150,0 z"
         id="path4627"
         inkscape:connector-curvature="0" />
      <path
         style="fill:#3c00e1;fill-opacity:1;fill-rule:evenodd;stroke:none;stroke-width:2.96992159"
         d="m 75,317.36237 a 59.999966,59.999966 0 0 0 -9.36956,0.77241 c -16.45666,11.68271 -14.55357,21.31351 -13.43481,28.87469 0.60265,10.95633 6.4887,16.55205 7.9969,30.44565 2.31138,16.10472 -4.92571,35.53198 -9.54952,38.44708 -5.20755,3.5969 -9.92743,5.968 -15.58296,6.1517 A 59.999966,59.999966 0 0 0 75,437.3623 a 59.999966,59.999966 0 0 0 31.7944,-9.2022 c -0.5254,-2.0658 -0.6501,-4.2264 -0.4424,-6.1703 1.406,-8.6513 5.2947,-15.2127 10.3129,-23.10198 3.1775,-5.33722 4.9992,-10.67458 7.4995,-16.01194 2.8857,-7.52964 2.92,-19.5102 0.6858,-38.85355 A 59.999966,59.999966 0 0 0 75,317.36237 Z m -18.33344,2.9453 A 59.999966,59.999966 0 0 0 15,377.36236 59.999966,59.999966 0 0 0 31.12304,418.2135 c 5.67348,-0.06 10.03253,-1.629 15.28035,-5.2548 4.6238,-2.915 10.63873,-20.10278 8.32629,-35.68286 -1.50819,-13.36908 -4.24376,-10.82652 -7.47124,-30.97033 -1.34835,-7.41844 -0.0798,-17.55767 9.40812,-25.99784 z m 72.71604,31.86574 c 1.044,12.63143 1.0008,23.77667 -2.7192,34.63931 -5.7456,13.65078 -18.0409,29.76808 -16.5609,34.12168 -0.1056,1.5903 -0.2108,3.2351 0.2721,4.8106 A 59.999966,59.999966 0 0 0 135,377.36236 59.999966,59.999966 0 0 0 129.3826,352.17341 Z"
         id="path5261"
         inkscape:connector-curvature="0" />
      <path
         id="path5263"
         d="m 257.5549,409.3129 c 1.4477,-1.4437 2.8453,-2.9316 4.1894,-4.4609 l 0,0 c 11.5302,-13.11752 19.4638,-28.95595 22.2058,-46.25775 1.2803,-8.08498 5.8328,-36.44177 -4.9333,-39.43105 -32.5169,-9.02912 -70.4631,7.82372 -91.5254,32.17488 -11.6202,13.43467 -19.6011,30.06662 -22.1,47.7009 -1.199,8.46412 -4.5658,34.72882 7.0215,37.20242 30.5275,6.5173 63.4296,-5.2718 85.1434,-26.9308 z m -14.2721,-40.31445 c -0.5574,0.39454 -0.9996,0.87759 -1.5521,1.25654 -1.8185,0.47474 -2.5494,-2.03779 -3.7664,-2.84649 -1.8741,1.80696 -3.7388,3.72962 -5.6094,5.58071 -1.1842,1.67415 -3.1319,2.65217 -4.2665,4.33206 0.081,1.30966 1.9,1.7528 2.4179,2.94347 0.8286,1.37731 -0.8625,2.21619 -1.7229,2.93746 -1.8186,0.47475 -2.5495,-2.03779 -3.7664,-2.84649 -1.8741,1.80697 -3.7388,3.72961 -5.6094,5.58073 -1.1843,1.67413 -3.132,2.65214 -4.2666,4.33204 0.081,1.3097 1.9001,1.7528 2.418,2.9435 0.8281,1.3776 -0.8627,2.2164 -1.7234,2.9379 -1.8185,0.4747 -2.5494,-2.0378 -3.7664,-2.8466 -3.2188,3.0984 -6.3188,6.4171 -9.5924,9.49642 -1.2625,1.3426 1.1263,1.7722 1.7594,2.6368 1.4129,1.5721 -0.6163,3.3279 -1.8559,4.1686 -2.9491,-3.0932 -6.1751,-5.9587 -9.0242,-9.1067 -0.8254,-1.37232 0.8541,-2.23382 1.7415,-2.92082 1.8747,-0.4312 2.6088,2.1038 3.8888,2.97342 1.8787,-1.78122 3.7426,-3.72932 5.6158,-5.57422 1.1774,-1.6673 3.1068,-2.6468 4.2508,-4.3072 -0.1022,-1.3908 -1.9764,-1.87682 -2.5496,-3.11851 -0.825,-1.37245 0.8542,-2.23405 1.7418,-2.92124 1.8748,-0.43111 2.609,2.1038 3.8888,2.97346 1.8788,-1.78122 3.7428,-3.72935 5.6159,-5.57432 1.1774,-1.66726 3.1069,-2.64674 4.2508,-4.30715 -0.1023,-1.39071 -1.9766,-1.87661 -2.5496,-3.11848 -0.8254,-1.37222 0.8541,-2.23378 1.7415,-2.92083 1.8747,-0.43087 2.6088,2.10375 3.8887,2.97348 1.8787,-1.78122 3.7427,-3.72934 5.6159,-5.5743 1.1774,-1.66726 3.1068,-2.64675 4.2507,-4.30715 -0.1022,-1.39072 -1.9766,-1.87661 -2.5495,-3.11847 -0.8255,-1.37224 0.8541,-2.23379 1.7414,-2.92084 1.8747,-0.43111 2.6088,2.10385 3.8888,2.97347 3.1423,-3.01478 6.219,-6.2774 9.3984,-9.28662 1.5687,-1.45389 -0.9014,-2.09918 -1.7063,-2.99011 -1.4129,-1.57209 0.6163,-3.32787 1.8559,-4.1686 l 6.3898,6.38983 c 0.7884,1.23775 2.7308,1.9412 3.0321,3.4191 -0.4796,0.89086 -1.3707,1.56632 -2.121,2.23555 -1.8185,0.47476 -2.5494,-2.03779 -3.7663,-2.84649 -2.6987,2.53032 -5.2216,5.3378 -7.8948,7.91605 -0.7548,0.65821 -2.9524,1.96825 -1.4528,2.98687 0.9106,0.82198 2.9254,2.25372 1.7188,3.63431 z"
         style="fill:#c63400;fill-opacity:1"
         inkscape:connector-curvature="0" />
      <path
         style="fill:#5b6bff;fill-opacity:1"
         id="path5265"
         d="m 375,317.36238 a 60,60 0 0 0 -60,60 60,60 0 0 0 60,59.99992 60,60 0 0 0 60,-59.99992 60,60 0 0 0 -60,-60 z m -1.9124,4.04357 0,4.71529 -17.844,9.17808 -17.2072,0 a 56.082364,56.082364 0 0 1 35.0512,-13.89337 z m 3.8248,0 a 56.082364,56.082364 0 0 1 35.0512,13.89337 l -17.2072,0 -17.844,-9.17808 0,-4.71529 z m -42.8265,17.71706 20.1381,0 5.3532,14.02022 -13.3836,23.07023 -14.6569,2.29421 -10.1977,-17.58899 a 56.082364,56.082364 0 0 1 12.7469,-21.79567 z m 61.6901,0 20.1381,0 a 56.082364,56.082364 0 0 1 12.6188,21.92252 l -10.0696,17.46214 -14.6569,-2.29421 -13.3836,-23.07023 5.3532,-14.02022 z m -31.8653,16.56935 22.1786,0 12.8737,22.43234 -11.3442,19.62954 -25.2376,0 -11.3442,-19.62954 12.8737,-22.43234 z m -43.8463,10.57949 9.305,16.18758 0.8928,18.48057 -4.7165,2.8052 a 56.082364,56.082364 0 0 1 -6.6278,-26.38524 56.082364,56.082364 0 0 1 1.1465,-11.08811 z m 109.8712,0.12685 a 56.082364,56.082364 0 0 1 1.1465,10.96126 56.082364,56.082364 0 0 1 -6.6278,26.38524 l -4.7165,-2.8052 0.8928,-18.48057 9.305,-16.06073 z m -67.5544,36.4537 25.2376,0 9.8135,12.109 -9.8135,16.9523 A 56.082364,56.082364 0 0 1 375,433.4432 56.082364,56.082364 0 0 1 362.3812,431.9137 l -9.8135,-16.9523 9.8135,-12.109 z m -30.4627,1.6576 16.1876,10.3234 8.9219,15.6777 a 56.082364,56.082364 0 0 1 -29.5711,-23.452 l 4.4616,-2.5491 z m 86.163,0 4.4616,2.5491 a 56.082364,56.082364 0 0 1 -29.5711,23.3252 l 8.9219,-15.5509 16.1876,-10.3234 z"
         inkscape:connector-curvature="0" />
      <path
         inkscape:connector-curvature="0"
         id="path5267"
         d="m 525,317.36237 a 59.999966,59.999966 0 0 0 -9.3696,0.77241 c -16.4566,11.68271 -14.5535,21.31351 -13.4348,28.87469 0.6027,10.95633 6.4887,16.55205 7.9969,30.44565 2.3114,16.10472 -4.9257,35.53198 -9.5495,38.44708 -5.2075,3.5969 -9.9274,5.968 -15.5829,6.1517 A 59.999966,59.999966 0 0 0 525,437.3623 a 59.999966,59.999966 0 0 0 31.7944,-9.2022 c -0.5254,-2.0658 -0.6501,-4.2264 -0.4424,-6.1703 1.406,-8.6513 5.2947,-15.2127 10.3129,-23.10198 3.1775,-5.33722 4.9992,-10.67458 7.4995,-16.01194 2.8857,-7.52964 2.92,-19.5102 0.6858,-38.85355 A 59.999966,59.999966 0 0 0 525,317.36237 Z m -18.3334,2.9453 A 59.999966,59.999966 0 0 0 465,377.36236 59.999966,59.999966 0 0 0 481.123,418.2135 c 5.6735,-0.06 10.0326,-1.629 15.2804,-5.2548 4.6238,-2.915 10.6387,-20.10278 8.3263,-35.68286 -1.5082,-13.36908 -4.2438,-10.82652 -7.4713,-30.97033 -1.3483,-7.41844 -0.08,-17.55767 9.4082,-25.99784 z m 72.716,31.86574 c 1.044,12.63143 1.0008,23.77667 -2.7192,34.63931 -5.7456,13.65078 -18.0409,29.76808 -16.5609,34.12168 -0.1056,1.5903 -0.2108,3.2351 0.2721,4.8106 A 59.999966,59.999966 0 0 0 585,377.36236 59.999966,59.999966 0 0 0 579.3826,352.17341 Z"
         style="fill:#1500a7;fill-opacity:1;fill-rule:evenodd;stroke:none;stroke-width:2.96992159" />
      <path
         id="path5269"
         d="m 857.55492,259.3129 c 1.44772,-1.4437 2.84525,-2.9316 4.18938,-4.4609 l -0.002,0 c 11.53016,-13.11752 19.46382,-28.95595 22.20578,-46.25775 1.28032,-8.08498 5.83286,-36.44177 -4.93332,-39.43105 -32.51682,-9.02912 -70.46307,7.82372 -91.52539,32.17488 -11.6202,13.43467 -19.60106,30.06662 -22.09996,47.7009 -1.19899,8.46412 -4.5658,34.72882 7.0215,37.20242 30.52749,6.5173 63.42961,-5.2718 85.14343,-26.9308 z m -14.27216,-40.31445 c -0.55735,0.39454 -0.9996,0.87759 -1.55208,1.25654 -1.81851,0.47474 -2.54942,-2.03779 -3.76637,-2.84649 -1.87407,1.80696 -3.7388,3.72962 -5.60943,5.58071 -1.18423,1.67415 -3.13191,2.65217 -4.26653,4.33206 0.081,1.30966 1.90004,1.7528 2.41795,2.94347 0.82864,1.37731 -0.86247,2.21619 -1.72294,2.93746 -1.81853,0.47475 -2.54943,-2.03779 -3.76638,-2.84649 -1.87407,1.80697 -3.73879,3.72961 -5.60943,5.58073 -1.18424,1.67413 -3.13191,2.65214 -4.26653,4.33204 0.0809,1.3097 1.90007,1.7528 2.41794,2.9435 0.82816,1.3776 -0.86264,2.2164 -1.72336,2.9379 -1.81852,0.4747 -2.54943,-2.0378 -3.76639,-2.8466 -3.21881,3.0984 -6.31878,6.4171 -9.59238,9.49642 -1.2625,1.3426 1.12631,1.7722 1.75939,2.6368 1.41288,1.5721 -0.6163,3.3279 -1.85588,4.1686 -2.94919,-3.0932 -6.17518,-5.9587 -9.0242,-9.1067 -0.82545,-1.37232 0.85408,-2.23382 1.74147,-2.92082 1.87471,-0.4312 2.60883,2.1038 3.88876,2.97342 1.87874,-1.78122 3.74262,-3.72932 5.61581,-5.57422 1.17744,-1.6673 3.10685,-2.6468 4.25082,-4.3072 -0.1022,-1.3908 -1.97641,-1.87682 -2.54958,-3.11851 -0.82502,-1.37245 0.85422,-2.23405 1.74182,-2.92124 1.87475,-0.43111 2.60891,2.1038 3.88879,2.97346 1.87875,-1.78122 3.74274,-3.72935 5.61587,-5.57432 1.17741,-1.66726 3.10685,-2.64674 4.25079,-4.30715 -0.10225,-1.39071 -1.97661,-1.87661 -2.54955,-3.11848 -0.82548,-1.37222 0.85405,-2.23378 1.74141,-2.92083 1.87474,-0.43087 2.60888,2.10375 3.88876,2.97348 1.87872,-1.78122 3.74271,-3.72934 5.61584,-5.5743 1.17742,-1.66726 3.10685,-2.64675 4.25079,-4.30715 -0.10225,-1.39072 -1.97661,-1.87661 -2.54955,-3.11847 -0.82547,-1.37224 0.85406,-2.23379 1.74141,-2.92084 1.87473,-0.43111 2.60884,2.10385 3.88876,2.97347 3.1423,-3.01478 6.21907,-6.2774 9.39841,-9.28662 1.5687,-1.45389 -0.90141,-2.09918 -1.70632,-2.99011 -1.41282,-1.57209 0.61632,-3.32787 1.85594,-4.1686 l 6.38982,6.38983 c 0.78837,1.23775 2.73077,1.9412 3.03213,3.4191 -0.47961,0.89086 -1.37076,1.56632 -2.121,2.23555 -1.81852,0.47476 -2.54941,-2.03779 -3.76636,-2.84649 -2.69869,2.53032 -5.22156,5.3378 -7.89482,7.91605 -0.75481,0.65821 -2.95241,1.96825 -1.45279,2.98687 0.91058,0.82198 2.92547,2.25372 1.71878,3.63431 z"
         style="fill:#250024;fill-opacity:1"
         inkscape:connector-curvature="0" />
      <path
         style="fill:#ffddd8;fill-opacity:1"
         id="path5271"
         d="m 75,167.36238 a 60,60 0 0 0 -60,60 60,60 0 0 0 60,59.99992 60,60 0 0 0 60,-59.99992 60,60 0 0 0 -60,-60 z m -1.91245,4.04357 0,4.71529 -17.84391,9.17808 -17.20724,0 a 56.082364,56.082364 0 0 1 35.05115,-13.89337 z m 3.8249,0 a 56.082364,56.082364 0 0 1 35.05115,13.89337 l -17.20724,0 -17.84391,-9.17808 0,-4.71529 z m -42.82659,17.71706 20.13812,0 5.35318,14.02022 -13.38354,23.07023 -14.65689,2.29421 L 21.339,210.91868 a 56.082364,56.082364 0 0 1 12.74686,-21.79567 z m 61.69015,0 20.13809,0 a 56.082364,56.082364 0 0 1 12.6188,21.92252 l -10.0696,17.46214 -14.6569,-2.29421 -13.38356,-23.07023 5.35317,-14.02022 z m -31.86533,16.56935 22.17864,0 12.87371,22.43234 -11.34423,19.62954 -25.2376,0 -11.34423,-19.62954 12.87371,-22.43234 z m -43.84625,10.57949 9.30493,16.18758 0.8928,18.48057 -4.71649,2.8052 a 56.082364,56.082364 0 0 1 -6.62774,-26.38524 56.082364,56.082364 0 0 1 1.1465,-11.08811 z m 109.87117,0.12685 a 56.082364,56.082364 0 0 1 1.1465,10.96126 56.082364,56.082364 0 0 1 -6.6278,26.38524 l -4.7165,-2.8052 0.8928,-18.48057 9.305,-16.06073 z m -67.5544,36.4537 25.2376,0 9.81354,12.109 -9.81354,16.9523 A 56.082364,56.082364 0 0 1 75,283.4432 56.082364,56.082364 0 0 1 62.3812,281.9137 l -9.81355,-16.9523 9.81355,-12.109 z m -30.46271,1.6576 16.18758,10.3234 8.92196,15.6777 a 56.082364,56.082364 0 0 1 -29.57112,-23.452 l 4.46158,-2.5491 z m 86.16301,0 4.4616,2.5491 a 56.082364,56.082364 0 0 1 -29.57113,23.3252 l 8.92193,-15.5509 16.1876,-10.3234 z"
         inkscape:connector-curvature="0" />
      <path
         inkscape:connector-curvature="0"
         id="path5273"
         d="m 225,167.36237 a 59.999966,59.999966 0 0 0 -9.3696,0.77241 c -16.4566,11.68271 -14.5535,21.31351 -13.4348,28.87469 0.6027,10.95633 6.4887,16.55205 7.9969,30.44565 2.3114,16.10472 -4.9257,35.53198 -9.5495,38.44708 -5.2075,3.5969 -9.9274,5.968 -15.5829,6.1517 A 59.999966,59.999966 0 0 0 225,287.3623 a 59.999966,59.999966 0 0 0 31.7944,-9.2022 c -0.5254,-2.0658 -0.6501,-4.2264 -0.4424,-6.1703 1.406,-8.6513 5.2947,-15.2127 10.3129,-23.10198 3.1775,-5.33722 4.9992,-10.67458 7.4995,-16.01194 2.8857,-7.52964 2.92,-19.5102 0.6858,-38.85355 A 59.999966,59.999966 0 0 0 225,167.36237 Z m -18.3334,2.9453 A 59.999966,59.999966 0 0 0 165,227.36236 59.999966,59.999966 0 0 0 181.123,268.2135 c 5.6735,-0.06 10.0326,-1.629 15.2804,-5.2548 4.6238,-2.915 10.6387,-20.10278 8.3263,-35.68286 -1.5082,-13.36908 -4.2438,-10.82652 -7.4713,-30.97033 -1.3483,-7.41844 -0.08,-17.55767 9.4082,-25.99784 z m 72.716,31.86574 c 1.044,12.63143 1.0008,23.77667 -2.7192,34.63931 -5.7456,13.65078 -18.0409,29.76808 -16.5609,34.12168 -0.1056,1.5903 -0.2108,3.2351 0.2721,4.8106 A 59.999966,59.999966 0 0 0 285,227.36236 59.999966,59.999966 0 0 0 279.3826,202.17341 Z"
         style="fill:#002f23;fill-opacity:1;fill-rule:evenodd;stroke:none;stroke-width:2.96992159" />
      <path
         inkscape:connector-curvature="0"
         style="fill:#fe76ae;fill-opacity:1"
         d="m 407.5549,259.3129 c 1.4477,-1.4437 2.8453,-2.9316 4.1894,-4.4609 l 0,0 c 11.5302,-13.11752 19.4638,-28.95595 22.2058,-46.25775 1.2803,-8.08498 5.8328,-36.44177 -4.9333,-39.43105 -32.5169,-9.02912 -70.4631,7.82372 -91.5254,32.17488 -11.6202,13.43467 -19.6011,30.06662 -22.1,47.7009 -1.199,8.46412 -4.5658,34.72882 7.0215,37.20242 30.5275,6.5173 63.4296,-5.2718 85.1434,-26.9308 z m -14.2721,-40.31445 c -0.5574,0.39454 -0.9996,0.87759 -1.5521,1.25654 -1.8185,0.47474 -2.5494,-2.03779 -3.7664,-2.84649 -1.8741,1.80696 -3.7388,3.72962 -5.6094,5.58071 -1.1842,1.67415 -3.1319,2.65217 -4.2665,4.33206 0.081,1.30966 1.9,1.7528 2.4179,2.94347 0.8286,1.37731 -0.8625,2.21619 -1.7229,2.93746 -1.8186,0.47475 -2.5495,-2.03779 -3.7664,-2.84649 -1.8741,1.80697 -3.7388,3.72961 -5.6094,5.58073 -1.1843,1.67413 -3.132,2.65214 -4.2666,4.33204 0.081,1.3097 1.9001,1.7528 2.418,2.9435 0.8281,1.3776 -0.8627,2.2164 -1.7234,2.9379 -1.8185,0.4747 -2.5494,-2.0378 -3.7664,-2.8466 -3.2188,3.0984 -6.3188,6.4171 -9.5924,9.49642 -1.2625,1.3426 1.1263,1.7722 1.7594,2.6368 1.4129,1.5721 -0.6163,3.3279 -1.8559,4.1686 -2.9491,-3.0932 -6.1751,-5.9587 -9.0242,-9.1067 -0.8254,-1.37232 0.8541,-2.23382 1.7415,-2.92082 1.8747,-0.4312 2.6088,2.1038 3.8888,2.97342 1.8787,-1.78122 3.7426,-3.72932 5.6158,-5.57422 1.1774,-1.6673 3.1068,-2.6468 4.2508,-4.3072 -0.1022,-1.3908 -1.9764,-1.87682 -2.5496,-3.11851 -0.825,-1.37245 0.8542,-2.23405 1.7418,-2.92124 1.8748,-0.43111 2.609,2.1038 3.8888,2.97346 1.8788,-1.78122 3.7428,-3.72935 5.6159,-5.57432 1.1774,-1.66726 3.1069,-2.64674 4.2508,-4.30715 -0.1023,-1.39071 -1.9766,-1.87661 -2.5496,-3.11848 -0.8254,-1.37222 0.8541,-2.23378 1.7415,-2.92083 1.8747,-0.43087 2.6088,2.10375 3.8887,2.97348 1.8787,-1.78122 3.7427,-3.72934 5.6159,-5.5743 1.1774,-1.66726 3.1068,-2.64675 4.2507,-4.30715 -0.1022,-1.39072 -1.9766,-1.87661 -2.5495,-3.11847 -0.8255,-1.37224 0.8541,-2.23379 1.7414,-2.92084 1.8747,-0.43111 2.6088,2.10385 3.8888,2.97347 3.1423,-3.01478 6.219,-6.2774 9.3984,-9.28662 1.5687,-1.45389 -0.9014,-2.09918 -1.7063,-2.99011 -1.4129,-1.57209 0.6163,-3.32787 1.8559,-4.1686 l 6.3898,6.38983 c 0.7884,1.23775 2.7308,1.9412 3.0321,3.4191 -0.4796,0.89086 -1.3707,1.56632 -2.121,2.23555 -1.8185,0.47476 -2.5494,-2.03779 -3.7663,-2.84649 -2.6987,2.53032 -5.2216,5.3378 -7.8948,7.91605 -0.7548,0.65821 -2.9524,1.96825 -1.4528,2.98687 0.9106,0.82198 2.9254,2.25372 1.7188,3.63431 z"
         id="path5275" />
      <path
         inkscape:connector-curvature="0"
         d="m 525,167.36238 a 60,60 0 0 0 -60,60 60,60 0 0 0 60,59.99992 60,60 0 0 0 60,-59.99992 60,60 0 0 0 -60,-60 z m -1.9124,4.04357 0,4.71529 -17.844,9.17808 -17.2072,0 a 56.082364,56.082364 0 0 1 35.0512,-13.89337 z m 3.8248,0 a 56.082364,56.082364 0 0 1 35.0512,13.89337 l -17.2072,0 -17.844,-9.17808 0,-4.71529 z m -42.8265,17.71706 20.1381,0 5.3532,14.02022 -13.3836,23.07023 -14.6569,2.29421 -10.1977,-17.58899 a 56.082364,56.082364 0 0 1 12.7469,-21.79567 z m 61.6901,0 20.1381,0 a 56.082364,56.082364 0 0 1 12.6188,21.92252 l -10.0696,17.46214 -14.6569,-2.29421 -13.3836,-23.07023 5.3532,-14.02022 z m -31.8653,16.56935 22.1786,0 12.8737,22.43234 -11.3442,19.62954 -25.2376,0 -11.3442,-19.62954 12.8737,-22.43234 z m -43.8463,10.57949 9.305,16.18758 0.8928,18.48057 -4.7165,2.8052 a 56.082364,56.082364 0 0 1 -6.6278,-26.38524 56.082364,56.082364 0 0 1 1.1465,-11.08811 z m 109.8712,0.12685 a 56.082364,56.082364 0 0 1 1.1465,10.96126 56.082364,56.082364 0 0 1 -6.6278,26.38524 l -4.7165,-2.8052 0.8928,-18.48057 9.305,-16.06073 z m -67.5544,36.4537 25.2376,0 9.8135,12.109 -9.8135,16.9523 A 56.082364,56.082364 0 0 1 525,283.4432 56.082364,56.082364 0 0 1 512.3812,281.9137 l -9.8135,-16.9523 9.8135,-12.109 z m -30.4627,1.6576 16.1876,10.3234 8.9219,15.6777 a 56.082364,56.082364 0 0 1 -29.5711,-23.452 l 4.4616,-2.5491 z m 86.163,0 4.4616,2.5491 a 56.082364,56.082364 0 0 1 -29.5711,23.3252 l 8.9219,-15.5509 16.1876,-10.3234 z"
         id="path5277"
         style="fill:#0b22ff;fill-opacity:1" />
      <path
         style="fill:#ffeadb;fill-opacity:1;fill-rule:evenodd;stroke:none;stroke-width:2.96992159"
         d="m 675,167.36237 a 59.999966,59.999966 0 0 0 -9.3696,0.77241 c -16.4566,11.68271 -14.5535,21.31351 -13.4348,28.87469 0.6027,10.95633 6.4887,16.55205 7.9969,30.44565 2.3114,16.10472 -4.9257,35.53198 -9.5495,38.44708 -5.2075,3.5969 -9.9274,5.968 -15.5829,6.1517 A 59.999966,59.999966 0 0 0 675,287.3623 a 59.999966,59.999966 0 0 0 31.7944,-9.2022 c -0.5254,-2.0658 -0.6501,-4.2264 -0.4424,-6.1703 1.406,-8.6513 5.2947,-15.2127 10.3129,-23.10198 3.1775,-5.33722 4.9992,-10.67458 7.4995,-16.01194 2.8857,-7.52964 2.92,-19.5102 0.6858,-38.85355 A 59.999966,59.999966 0 0 0 675,167.36237 Z m -18.3334,2.9453 A 59.999966,59.999966 0 0 0 615,227.36236 59.999966,59.999966 0 0 0 631.123,268.2135 c 5.6735,-0.06 10.0326,-1.629 15.2804,-5.2548 4.6238,-2.915 10.6387,-20.10278 8.3263,-35.68286 -1.5082,-13.36908 -4.2438,-10.82652 -7.4713,-30.97033 -1.3483,-7.41844 -0.08,-17.55767 9.4082,-25.99784 z m 72.716,31.86574 c 1.044,12.63143 1.0008,23.77667 -2.7192,34.63931 -5.7456,13.65078 -18.0409,29.76808 -16.5609,34.12168 -0.1056,1.5903 -0.2108,3.2351 0.2721,4.8106 A 59.999966,59.999966 0 0 0 735,227.36236 59.999966,59.999966 0 0 0 729.3826,202.17341 Z"
         id="path5279"
         inkscape:connector-curvature="0" />
    </g>
  </g>
</svg>
